<?xml version="1.0" standalone="no"?>
<!DOCTYPE svg PUBLIC "-//W3C//DTD SVG 20010904//EN"
 "http://www.w3.org/TR/2001/REC-SVG-20010904/DTD/svg10.dtd">
<svg version="1.0" xmlns="http://www.w3.org/2000/svg"
 width="375.000000pt" height="375.000000pt" viewBox="0 0 375.000000 375.000000"
 preserveAspectRatio="xMidYMid meet">
<metadata>
Created by potrace 1.11, written by Peter Selinger 2001-2013
</metadata>
<g transform="translate(0.000000,375.000000) scale(0.100000,-0.100000)"
fill="#000000" stroke="none">
<path d="M333 3743 c10 -3 16 -10 15 -16 -1 -7 1 -24 5 -39 8 -29 21 -36 32
-18 4 6 11 8 16 4 6 -3 0 -15 -13 -26 l-23 -20 25 4 c21 2 25 8 26 38 1 57
-14 76 -60 77 -23 0 -33 -2 -23 -4z m67 -31 c0 -4 -9 -13 -20 -20 -17 -10 -20
-10 -20 2 0 8 8 17 18 19 9 3 18 5 20 6 1 0 2 -2 2 -7z"/>
<path d="M2130 3740 c-18 -12 -2 -12 25 0 13 6 15 9 5 9 -8 0 -22 -4 -30 -9z"/>
<path d="M2205 3739 c4 -5 15 -9 25 -9 10 0 21 -4 25 -10 3 -5 12 -7 20 -3 9
3 22 0 30 -7 8 -7 15 -8 15 -4 0 5 18 9 39 9 22 0 37 -3 34 -8 -3 -5 -12 -6
-20 -3 -8 3 -21 -1 -29 -9 -14 -13 -13 -15 8 -13 12 2 23 -3 24 -9 1 -7 2 -17
3 -23 0 -5 8 -7 16 -4 9 4 15 0 15 -10 0 -9 8 -16 20 -16 11 0 20 -4 20 -10 0
-5 -6 -10 -12 -10 -9 0 -9 -3 1 -9 11 -7 10 -10 -5 -13 -10 -3 4 -4 31 -4 28
1 55 6 60 13 10 12 26 12 55 0 20 -9 170 -15 170 -8 0 3 10 6 23 7 51 2 151
24 158 35 4 6 11 9 17 5 6 -3 13 -2 17 4 3 5 19 10 36 10 16 0 29 4 29 10 0
16 68 23 100 10 40 -16 92 -66 116 -110 10 -19 24 -42 31 -50 6 -8 12 -18 12
-23 1 -4 8 -24 17 -45 8 -20 13 -51 11 -68 -4 -25 0 -37 20 -55 58 -55 97
-120 99 -168 1 -25 3 -51 3 -57 1 -6 21 -31 46 -55 25 -24 57 -68 71 -97 28
-60 42 -68 87 -55 25 7 32 14 32 35 1 18 -5 28 -18 32 -10 2 -16 9 -13 14 3 6
0 13 -6 16 -10 5 -10 7 0 12 10 5 9 9 -5 19 -10 7 -18 19 -18 27 -1 7 -7 12
-14 10 -9 -2 -10 4 -6 19 5 16 4 19 -6 14 -9 -6 -11 -3 -6 8 4 11 1 17 -8 17
-7 0 -17 5 -21 12 -4 7 -3 8 4 4 7 -4 12 -3 12 1 0 5 -12 16 -27 25 -16 10
-22 18 -15 18 6 0 12 5 12 11 0 6 -7 8 -16 5 -15 -6 -15 -4 -3 11 12 15 12 16
-4 10 -15 -6 -16 -4 -6 14 6 11 8 23 5 27 -3 3 -6 0 -6 -7 0 -7 -5 -9 -11 -6
-6 4 -8 14 -4 23 3 9 3 13 -1 9 -8 -8 -34 57 -34 84 0 9 -7 19 -15 23 -8 3
-15 14 -15 24 0 11 -7 25 -15 32 -8 6 -17 22 -21 33 -3 12 -15 32 -26 44 l-20
22 23 -6 c23 -5 23 -5 5 9 -12 10 -16 20 -11 28 5 9 4 11 -3 6 -11 -7 -17 11
-13 40 1 7 -8 14 -19 17 -11 3 -20 9 -19 14 4 21 -3 33 -18 34 -15 0 -15 2 2
9 l20 9 -20 1 c-11 1 -14 4 -8 7 10 3 9 10 -2 27 -8 12 -12 26 -8 30 10 10
-979 6 -998 -5 -9 -5 -30 -4 -48 1 -19 5 -29 5 -26 -1z m105 -9 c0 -5 -2 -10
-4 -10 -3 0 -8 5 -11 10 -3 6 -1 10 4 10 6 0 11 -4 11 -10z m118 -39 c10 -6 9
-10 -7 -14 -21 -5 -36 5 -24 17 8 8 15 7 31 -3z m32 -41 c0 -5 -7 -10 -16 -10
-8 0 -12 5 -9 10 3 6 10 10 16 10 5 0 9 -4 9 -10z"/>
<path d="M2285 3690 c3 -5 8 -10 11 -10 2 0 4 5 4 10 0 6 -5 10 -11 10 -5 0
-7 -4 -4 -10z"/>
<path d="M415 3620 c-3 -5 -2 -10 4 -10 5 0 13 5 16 10 3 6 2 10 -4 10 -5 0
-13 -4 -16 -10z"/>
<path d="M380 3599 c0 -5 5 -7 10 -4 6 3 10 8 10 11 0 2 -4 4 -10 4 -5 0 -10
-5 -10 -11z"/>
<path d="M2390 3600 c0 -5 4 -10 9 -10 6 0 13 5 16 10 3 6 -1 10 -9 10 -9 0
-16 -4 -16 -10z"/>
<path d="M1456 3413 c-4 -14 -12 -20 -22 -16 -8 3 -14 -1 -14 -11 0 -9 -5 -16
-11 -16 -5 0 -7 -5 -4 -10 4 -7 12 -7 25 0 10 5 26 7 34 4 9 -3 16 -1 16 6 0
6 5 8 10 5 6 -3 17 0 25 9 19 19 19 26 0 26 -8 0 -15 -5 -15 -11 0 -5 -5 -7
-10 -4 -6 4 -7 11 -4 17 4 6 2 8 -4 4 -5 -3 -12 0 -15 6 -2 8 -7 4 -11 -9z"/>
<path d="M1914 3310 c-5 -5 -30 -20 -56 -33 -42 -21 -44 -24 -27 -35 26 -17
50 -15 43 2 -4 11 0 13 15 9 12 -3 28 0 36 7 8 7 21 10 29 7 10 -4 13 -1 10 7
-3 8 0 17 5 21 6 3 9 11 6 16 -8 12 -48 12 -61 -1z"/>
<path d="M1646 3218 c-9 -12 -16 -34 -16 -49 0 -15 -7 -32 -15 -39 -8 -7 -15
-19 -15 -27 0 -10 -6 -13 -16 -9 -9 3 -18 6 -20 6 -2 0 -4 7 -4 16 0 8 5 12
10 9 6 -4 10 14 10 45 0 37 -4 50 -12 47 -7 -2 -13 -15 -13 -30 0 -14 -3 -28
-7 -32 -4 -4 -4 -20 -1 -36 7 -37 0 -37 -24 1 -17 26 -21 28 -43 17 -14 -7
-29 -26 -35 -42 -5 -16 -22 -43 -38 -59 -15 -17 -30 -39 -33 -48 -3 -10 -10
-18 -15 -18 -6 0 -8 4 -5 9 3 4 -6 6 -19 3 -14 -2 -22 -8 -19 -13 6 -10 -26
-69 -38 -69 -3 0 -22 -15 -40 -34 -37 -37 -112 -68 -144 -60 -12 3 -33 -1 -46
-10 -14 -9 -28 -13 -32 -9 -4 5 -6 1 -4 -7 2 -8 -2 -14 -9 -13 -6 1 -14 -4
-17 -12 -3 -9 0 -15 8 -15 8 0 17 7 20 16 6 15 10 14 33 -7 15 -13 21 -16 14
-6 -19 24 -4 21 29 -7 28 -23 29 -23 77 -7 26 10 68 28 93 41 25 14 71 37 103
52 32 15 60 34 63 43 4 8 12 15 19 15 8 0 38 15 67 33 55 33 85 57 72 57 -4 0
2 8 14 18 52 44 63 52 67 52 3 0 13 7 24 16 10 9 52 30 92 47 55 23 69 32 54
37 -20 5 -28 40 -13 56 9 8 -10 34 -24 34 -6 0 -4 -8 3 -17 7 -10 1 -7 -14 7
-22 19 -31 22 -45 13 -9 -6 -16 -16 -15 -21 1 -6 -4 -13 -12 -16 -8 -3 -15 -1
-15 5 0 6 -4 7 -10 4 -5 -3 -10 1 -10 9 0 25 -18 27 -34 4z m17 -43 c-7 -21
-13 -19 -13 6 0 11 4 18 10 14 5 -3 7 -12 3 -20z m-196 -147 c-2 -13 -4 -5 -4
17 -1 22 1 32 4 23 2 -10 2 -28 0 -40z"/>
<path d="M2517 2952 c88 -83 109 -120 74 -129 -11 -3 -18 -10 -15 -15 3 -5 12
-7 19 -4 7 2 22 -4 33 -14 11 -10 23 -16 26 -13 3 4 6 0 6 -8 0 -26 20 -38 51
-29 17 5 29 5 29 0 0 -5 10 -14 21 -21 12 -6 19 -7 15 -1 -3 5 4 12 15 15 16
4 20 2 16 -12 -2 -10 2 -26 11 -37 14 -18 14 -18 9 3 -5 20 -3 22 16 11 21
-10 21 -10 6 8 -9 10 -14 25 -12 32 3 6 0 12 -5 12 -5 0 -16 20 -23 46 l-14
45 -26 -32 c-30 -37 -18 -45 -124 75 -33 38 -73 75 -90 83 -16 9 -32 19 -35
22 -10 13 -60 41 -72 41 -7 0 24 -35 69 -78z"/>
<path d="M1286 2944 c-5 -14 -4 -15 9 -4 17 14 19 20 6 20 -5 0 -12 -7 -15
-16z"/>
<path d="M906 2845 c-11 -8 -17 -18 -13 -21 10 -11 37 4 37 21 0 18 0 18 -24
0z"/>
<path d="M943 2833 c-15 -5 -18 -33 -4 -33 8 0 25 30 19 35 -2 1 -9 0 -15 -2z"/>
<path d="M3566 2771 c-9 -16 -12 -32 -8 -35 3 -4 -6 -2 -21 3 -39 15 -40 14
-33 -15 7 -25 5 -26 -24 -22 -31 5 -34 1 -24 -26 5 -13 10 -13 27 -4 12 6 27
18 33 26 10 13 13 13 23 -4 11 -18 11 -18 25 -1 14 18 15 17 21 -3 5 -16 12
-19 28 -14 34 10 40 19 32 52 -7 32 -29 37 -46 11 -7 -12 -9 -12 -9 1 0 13 -1
13 -11 0 -8 -12 -9 -10 -5 10 3 14 6 29 6 33 0 5 5 5 10 2 6 -3 10 -1 10 4 0
21 -20 11 -34 -18z m48 -66 c-4 -8 -10 -15 -15 -15 -5 0 -9 7 -9 15 0 8 7 15
15 15 9 0 12 -6 9 -15z"/>
<path d="M3690 2770 c0 -5 7 -7 15 -4 8 4 15 8 15 10 0 2 -7 4 -15 4 -8 0 -15
-4 -15 -10z"/>
<path d="M935 2760 c3 -5 13 -10 21 -10 8 0 14 5 14 10 0 6 -9 10 -21 10 -11
0 -17 -4 -14 -10z"/>
<path d="M2905 2680 c-3 -6 1 -7 9 -4 18 7 21 14 7 14 -6 0 -13 -4 -16 -10z"/>
<path d="M3571 2674 c0 -11 3 -14 6 -6 3 7 2 16 -1 19 -3 4 -6 -2 -5 -13z"/>
<path d="M3698 2633 c7 -3 16 -2 19 1 4 3 -2 6 -13 5 -11 0 -14 -3 -6 -6z"/>
<path d="M3550 2601 c0 -6 4 -13 10 -16 6 -3 7 1 4 9 -7 18 -14 21 -14 7z"/>
<path d="M3690 2570 c0 -5 4 -10 9 -10 6 0 13 5 16 10 3 6 -1 10 -9 10 -9 0
-16 -4 -16 -10z"/>
<path d="M3700 2536 c0 -23 -19 -29 -36 -12 -24 24 -74 17 -74 -10 0 -19 -10
-18 -27 4 -10 13 -13 13 -11 2 2 -9 -7 -16 -22 -18 -35 -5 -46 -18 -30 -36 7
-9 10 -23 6 -31 -3 -9 -2 -13 4 -10 6 3 10 -3 10 -13 0 -29 26 -48 45 -32 9 8
15 8 15 2 0 -6 -5 -12 -12 -14 -14 -5 -22 -48 -8 -48 6 0 10 -5 10 -11 0 -6
13 -29 28 -52 45 -66 62 -105 48 -111 -7 -3 -4 -10 8 -20 11 -9 16 -16 12 -16
-5 0 -3 -6 3 -13 6 -8 8 -17 4 -20 -3 -4 -1 -7 5 -7 7 0 12 -9 12 -20 0 -11 4
-20 9 -20 5 0 8 -11 6 -25 -1 -14 2 -28 7 -31 4 -3 6 -9 3 -14 -3 -5 -1 -11 4
-14 16 -10 4 -128 -13 -138 -9 -5 -16 -14 -16 -19 0 -6 5 -7 12 -3 7 4 8 3 4
-4 -4 -7 -19 -12 -34 -12 -26 1 -26 1 -8 15 11 8 14 15 8 15 -7 0 -12 7 -12
16 0 10 -6 14 -15 10 -20 -7 -19 -1 2 19 13 14 14 21 5 35 -9 14 -8 20 1 23 9
4 9 6 -1 6 -7 1 -11 5 -8 10 3 4 -15 30 -39 57 -25 27 -45 52 -45 56 0 11 -14
10 -47 -3 -15 -6 -30 -11 -33 -11 -21 -1 -41 -22 -37 -39 3 -10 1 -22 -4 -25
-5 -3 -4 -14 2 -26 8 -15 8 -19 0 -14 -6 4 -11 2 -11 -3 0 -6 4 -11 9 -11 15
0 6 -32 -14 -46 -10 -8 -16 -17 -12 -20 4 -4 2 -13 -4 -21 -6 -7 -9 -22 -6
-33 3 -11 1 -20 -4 -20 -5 0 -9 -7 -9 -15 0 -8 5 -15 10 -15 6 0 10 -5 10 -11
0 -5 -5 -7 -11 -3 -7 4 -9 0 -5 -14 13 -39 15 -62 6 -62 -9 0 5 -41 36 -103
13 -27 13 -27 -9 -16 -20 11 -21 11 -8 -5 12 -15 12 -16 -5 -10 -16 6 -15 3 6
-22 14 -16 18 -23 10 -16 -17 14 -34 16 -25 2 3 -5 2 -10 -4 -10 -7 0 -7 -8
-1 -25 9 -24 8 -25 -11 -14 -15 8 -19 8 -15 0 4 -6 3 -11 -3 -11 -5 0 -13 5
-16 11 -4 6 -13 8 -20 5 -7 -2 -19 1 -26 7 -11 10 -11 9 0 -5 15 -21 12 -22
-24 -8 -14 5 -23 15 -20 20 4 6 3 10 -2 9 -4 -1 -15 -1 -23 0 -12 1 -11 4 3
12 14 8 15 14 7 24 -8 9 -7 14 3 18 8 3 13 18 12 36 -1 21 3 31 12 31 8 0 12
4 9 9 -3 5 2 12 11 15 14 6 14 8 -3 21 -10 8 -14 15 -7 15 7 0 10 7 7 15 -4
10 0 15 11 15 13 0 15 3 6 13 -6 8 -7 18 -3 23 4 5 6 8 3 7 -8 -5 -45 27 -47
42 -2 11 2 13 16 5 31 -17 35 -11 10 15 -13 14 -20 28 -17 32 4 3 2 12 -4 20
-9 9 -8 13 0 13 9 0 9 5 1 20 -6 12 -7 20 -1 20 5 0 0 19 -13 43 -12 23 -22
55 -23 71 0 16 -6 32 -12 36 -10 6 -21 37 -23 67 -1 6 -8 8 -16 5 -11 -4 -14
-1 -10 9 3 9 -5 25 -18 38 -13 13 -22 27 -19 31 3 5 0 12 -6 16 -8 5 -9 3 -4
-6 6 -10 4 -12 -9 -7 -10 4 -20 7 -22 7 -3 0 -2 5 1 10 3 6 1 10 -6 10 -7 0
-9 3 -6 6 3 4 -6 16 -21 28 -27 21 -30 22 -56 25 -8 0 -13 9 -11 19 3 22 -30
88 -48 95 -16 6 -37 -11 -37 -29 0 -7 -4 -15 -9 -19 -16 -9 -3 36 15 56 10 11
13 19 8 20 -5 0 -17 2 -26 4 -10 2 -29 -6 -43 -17 -14 -10 -30 -16 -36 -12 -8
5 -8 9 1 14 13 8 5 30 -11 30 -5 0 -14 -10 -19 -22 -5 -13 -9 -17 -9 -10 -1 6
-6 12 -12 12 -6 0 -9 -7 -5 -15 3 -8 1 -15 -3 -15 -5 0 -11 6 -14 14 -6 16
-57 28 -57 13 0 -6 -9 -1 -21 11 -11 12 -25 19 -31 16 -7 -4 -8 -2 -4 4 6 10
-7 17 -17 10 -2 -2 -11 3 -20 11 -15 12 -17 11 -18 -5 0 -16 -2 -16 -11 4 -6
12 -15 22 -20 22 -5 0 -6 -4 -3 -10 3 -5 1 -10 -4 -10 -6 0 -11 4 -11 9 0 5
-7 12 -16 15 -13 5 -14 3 -6 -6 6 -7 11 -17 12 -23 1 -5 8 -9 15 -7 10 2 13
-3 8 -14 -4 -11 -3 -15 5 -10 6 3 14 1 18 -5 4 -8 3 -9 -4 -5 -17 11 -15 -9 3
-24 8 -7 15 -18 15 -24 0 -6 -7 -3 -14 7 -15 19 -31 23 -20 5 6 -11 -6 -2 -46
31 -3 2 3 1 13 -2 9 -4 17 -3 17 1 0 8 -67 36 -87 37 -6 0 -15 4 -20 9 -4 5
-3 6 5 2 14 -8 17 10 2 19 -10 6 -14 -7 -11 -32 3 -21 -15 -15 -27 10 l-11 22
0 -22 c-1 -13 3 -23 7 -23 5 0 15 -11 22 -25 7 -14 16 -23 18 -20 4 4 32 -40
32 -50 0 -3 -24 0 -75 10 -27 6 -28 5 -10 -7 11 -7 23 -13 28 -13 11 0 10 -19
-2 -23 -6 -2 -11 1 -11 6 0 5 -7 13 -16 16 -30 11 7 -25 41 -41 l30 -14 -35 6
c-19 4 -42 14 -50 24 -9 10 -22 15 -29 13 -9 -3 -11 0 -6 8 5 8 0 11 -16 8
-28 -4 -33 -34 -10 -62 12 -15 4 -13 -36 10 -29 15 -47 31 -42 35 12 7 -19 23
-39 20 -8 -1 -22 4 -31 11 -9 7 -6 3 9 -10 14 -12 32 -29 41 -37 9 -8 21 -15
27 -15 6 0 14 -5 17 -10 4 -6 1 -9 -7 -8 -7 2 -12 -3 -10 -10 2 -9 -9 -5 -30
9 -27 19 -31 20 -25 5 4 -10 7 -20 7 -22 0 -3 4 -3 9 0 5 3 11 0 14 -7 5 -14
-30 -16 -52 -3 -16 10 -23 3 -15 -18 3 -9 17 -19 30 -22 13 -3 24 -10 24 -15
0 -11 2 -11 -38 0 -19 6 -32 6 -32 1 0 -5 -7 -6 -17 -3 -11 4 -14 3 -9 -5 4
-7 1 -12 -8 -12 -9 0 -16 6 -16 13 0 9 -2 9 -8 -1 -6 -9 -15 -10 -33 -3 -23 9
-23 10 -2 10 14 1 20 7 19 19 -2 9 4 20 13 23 9 4 -3 7 -26 7 -24 0 -43 -4
-43 -9 0 -5 -15 -6 -32 -4 -25 4 -28 3 -13 -4 14 -6 -1 -8 -48 -7 -38 1 -72 7
-75 13 -4 5 -14 13 -22 17 -19 8 18 1 45 -9 l20 -7 -20 14 c-11 8 -33 20 -50
26 l-30 12 35 -6 35 -5 -40 19 c-22 10 -44 19 -48 20 -4 0 -20 8 -34 18 -26
16 -27 16 -52 -12 -13 -16 -29 -28 -34 -26 -6 2 -5 -4 3 -12 10 -14 10 -16 -6
-16 -16 -1 -14 -5 11 -26 17 -15 25 -24 20 -21 -6 3 -17 2 -25 -4 -11 -6 -12
-9 -2 -9 7 0 10 -4 7 -10 -6 -9 10 -14 42 -13 7 1 10 -3 7 -8 -3 -5 -13 -9
-22 -9 -9 0 -25 -7 -35 -14 -16 -12 -15 -14 13 -19 16 -4 30 -11 30 -16 0 -6
-7 -7 -17 -4 -12 5 -14 3 -8 -7 6 -10 4 -11 -6 -4 -8 4 -18 9 -24 10 -5 1 -19
6 -29 10 -15 6 -17 4 -11 -7 8 -12 6 -12 -8 0 -10 8 -20 12 -22 9 -10 -9 20
-26 56 -32 19 -3 46 -10 60 -16 22 -9 20 -10 -11 -6 l-35 5 28 -15 c35 -19 35
-26 0 -18 -22 4 -25 3 -13 -5 8 -6 23 -11 33 -11 10 0 17 -7 17 -17 0 -12 -3
-14 -8 -6 -4 7 -14 10 -22 8 -40 -9 -59 -18 -55 -25 3 -5 -4 -11 -15 -15 -11
-3 -20 -11 -20 -16 0 -5 -6 -9 -13 -9 -14 0 -47 -35 -47 -50 0 -5 7 -7 15 -3
13 5 14 2 4 -21 -7 -14 -16 -26 -21 -26 -5 0 -6 -5 -2 -11 4 -6 21 -8 43 -5
l36 6 -35 -18 c-19 -9 -35 -23 -35 -29 0 -7 -6 -18 -12 -24 -18 -18 -16 -27 5
-32 16 -4 16 -5 -1 -6 -12 -1 -16 -5 -11 -13 6 -10 4 -10 -8 0 -11 9 -18 10
-23 2 -3 -5 -1 -10 5 -10 6 0 9 -4 6 -9 -3 -5 -16 -7 -28 -3 -14 3 -19 2 -14
-7 4 -6 12 -9 17 -6 5 4 9 1 9 -6 0 -6 8 -9 20 -6 13 3 20 0 20 -10 0 -9 -6
-13 -14 -10 -10 4 -13 1 -10 -7 3 -8 -8 -18 -28 -26 -18 -7 -40 -19 -48 -25
-21 -17 -68 -24 -74 -11 -2 6 -5 4 -5 -6 -1 -11 -7 -15 -23 -11 -21 4 -21 3
-5 -7 9 -6 15 -16 11 -21 -3 -6 -15 -4 -31 6 -13 9 -39 16 -56 16 -18 -1 -41
-1 -52 -2 -16 0 -17 -2 -5 -9 8 -5 17 -7 21 -5 3 3 14 -4 24 -15 10 -11 13
-20 7 -20 -6 0 -13 4 -17 10 -3 5 -12 7 -20 4 -20 -8 -10 -21 34 -44 44 -22
82 -70 56 -70 -10 0 -13 5 -9 12 4 7 3 8 -4 4 -16 -10 -2 -38 15 -32 8 3 11 2
8 -3 -3 -5 -1 -12 5 -16 5 -3 10 -1 10 4 0 6 5 11 11 11 5 0 7 -5 4 -10 -4 -6
7 -15 24 -21 17 -6 28 -15 25 -20 -3 -5 -1 -9 5 -9 5 0 8 -9 6 -19 -2 -14 1
-18 10 -15 10 4 12 0 8 -15 -4 -17 -2 -20 11 -15 19 7 20 0 6 -26 -9 -17 -8
-18 7 -13 16 6 16 5 4 -10 -12 -16 -12 -17 5 -11 10 4 24 10 29 13 6 3 1 -3
-12 -14 -13 -12 -23 -26 -23 -33 0 -8 -5 -10 -12 -6 -6 4 -8 3 -4 -4 6 -11
-43 -77 -51 -68 -3 2 -25 -11 -50 -30 -65 -49 -74 -42 -11 10 29 24 56 39 59
34 6 -9 19 13 19 32 0 12 -67 -28 -78 -44 -9 -17 -62 -51 -62 -40 0 4 8 16 17
26 16 18 16 19 -12 13 -45 -9 -46 -10 -96 -35 -29 -14 -53 -35 -62 -54 -10
-20 -16 -25 -16 -13 -1 22 -10 22 -30 -2 -15 -17 -19 -17 -63 -3 -26 8 -45 18
-43 22 3 4 -6 11 -20 14 -26 7 -51 41 -37 50 5 3 26 -4 48 -14 40 -21 60 -27
34 -10 -10 6 -2 7 25 3 22 -3 37 -2 33 2 -4 5 -3 14 3 22 9 10 7 13 -7 13 -15
0 -16 2 -5 9 10 6 6 11 -15 19 -22 8 -24 11 -9 11 17 1 15 4 -10 21 -16 11
-25 20 -20 20 6 0 2 5 -7 11 -10 5 -18 17 -18 24 0 8 -6 15 -13 15 -24 0 -77
31 -71 41 3 6 13 8 23 5 9 -4 5 3 -9 14 -14 11 -41 22 -60 26 -49 9 -74 25
-30 19 35 -5 35 -5 -5 8 -22 7 -40 17 -40 22 0 6 -4 16 -8 23 -5 7 -3 12 4 12
7 0 9 3 6 6 -4 4 -13 1 -22 -6 -12 -10 -15 -9 -15 6 0 16 -2 17 -10 4 -8 -13
-10 -13 -10 2 0 9 -8 22 -18 27 -26 16 -9 13 34 -5 l39 -16 -22 23 c-12 13
-22 29 -23 34 0 6 -10 20 -20 32 -19 22 -19 23 -1 35 18 11 18 12 -3 31 -11
10 -15 16 -8 12 17 -9 15 10 -3 25 -8 7 -15 19 -15 28 0 12 4 12 21 -4 20 -18
20 -18 15 6 -17 75 -18 85 -6 70 9 -12 11 -10 7 12 -2 15 0 25 4 22 5 -3 9 6
9 20 0 17 4 24 13 20 10 -4 12 3 9 27 -3 24 -1 30 8 24 9 -6 10 -3 2 12 -6 11
-10 27 -8 37 1 10 -4 48 -11 85 -21 99 -21 101 -22 171 -1 62 -2 64 -17 42
-10 -14 -14 -37 -12 -57 3 -24 0 -31 -9 -28 -7 3 -13 0 -13 -7 0 -6 -5 -8 -12
-4 -7 5 -9 1 -6 -13 6 -21 -17 -28 -39 -11 -16 12 -23 -3 -17 -36 3 -18 1 -25
-6 -21 -5 3 -10 1 -10 -5 0 -6 -5 -8 -11 -5 -6 4 -8 9 -5 12 3 3 0 15 -6 27
-14 25 -15 40 -7 83 5 22 2 36 -10 49 -9 9 -11 14 -5 11 12 -7 64 14 64 26 0
4 -10 7 -22 7 -22 1 -22 1 -3 12 33 19 47 37 49 62 0 13 4 22 9 19 4 -2 7 1 7
6 0 6 -8 11 -17 12 -15 0 -15 2 -3 7 26 12 19 47 -10 49 -41 3 -72 -6 -63 -20
4 -6 8 -20 8 -30 1 -13 -3 -17 -17 -14 -16 5 -17 3 -7 -9 6 -8 17 -14 25 -14
7 0 16 -5 19 -10 4 -6 3 -10 -2 -9 -26 5 -33 -2 -27 -27 5 -20 4 -25 -5 -20
-7 4 -18 2 -26 -4 -8 -7 -23 -9 -32 -6 -15 5 -15 4 1 -9 11 -8 23 -15 28 -15
4 0 0 -9 -9 -20 -12 -14 -24 -18 -41 -13 -17 4 -23 2 -18 -6 4 -6 0 -11 -11
-12 -10 0 -13 -3 -5 -6 15 -6 16 -33 2 -33 -6 0 -14 9 -18 19 -6 17 -10 18
-25 6 -16 -12 -15 -15 20 -46 21 -18 37 -37 36 -41 -2 -4 2 -8 7 -8 6 0 10 -4
10 -9 0 -5 -10 -7 -22 -4 -19 4 -20 3 -8 -7 12 -9 10 -10 -10 -4 -14 4 -31 9
-37 11 -19 7 -16 -14 3 -25 15 -8 15 -10 0 -15 -12 -5 -15 -3 -10 6 5 9 4 9
-6 0 -10 -9 -10 -15 4 -28 21 -22 20 -28 -3 -15 -30 15 -43 13 -33 -7 4 -10 7
-24 6 -30 -1 -7 -2 -18 -3 -24 0 -5 -5 -7 -11 -4 -6 4 -6 -3 0 -21 15 -38 21
-94 10 -94 -9 0 -7 -12 5 -56 4 -12 2 -25 -5 -29 -17 -10 -23 1 -22 37 0 18
-3 37 -8 43 -4 5 -11 38 -13 72 -5 60 -46 165 -69 179 -7 4 -8 2 -4 -5 6 -8 1
-8 -18 1 -14 6 -26 16 -26 21 0 5 7 4 15 -3 15 -13 13 -5 -19 70 -3 8 -4 -2
-2 -22 3 -21 1 -38 -5 -38 -13 0 -11 -113 2 -147 11 -27 22 -186 20 -285 0
-30 3 -48 11 -48 6 0 8 -3 5 -7 -4 -3 28 -24 70 -44 43 -21 74 -39 70 -39 -14
0 18 -27 41 -34 12 -4 20 -12 16 -17 -3 -6 3 -13 15 -16 12 -3 21 -9 21 -14 0
-4 16 -24 36 -43 20 -19 33 -40 29 -45 -3 -6 1 -11 9 -11 9 0 16 -4 16 -10 0
-5 -5 -10 -12 -10 -6 0 -1 -8 10 -19 12 -10 22 -23 22 -30 0 -6 18 -29 40 -51
23 -23 38 -45 35 -50 -3 -5 8 -21 24 -36 17 -15 28 -33 26 -44 -2 -11 6 -25
19 -33 12 -8 33 -31 46 -50 13 -19 38 -43 55 -53 31 -18 39 -24 116 -93 25
-23 56 -41 67 -41 15 0 20 -5 16 -15 -7 -16 53 -58 73 -51 6 3 14 -2 17 -10 5
-13 11 -12 38 7 18 13 27 16 21 8 -11 -13 -9 -19 7 -34 19 -18 20 -17 20 2 0
12 7 23 15 27 8 3 15 1 15 -3 0 -5 -6 -11 -12 -14 -7 -2 -10 -7 -7 -11 4 -4
14 1 24 10 14 14 18 15 25 4 12 -20 4 -29 -20 -23 -11 3 -20 0 -20 -6 0 -6 -7
-11 -15 -11 -8 0 -15 -4 -15 -10 0 -5 -8 -10 -17 -10 -11 0 -14 3 -8 8 15 10
12 38 -3 34 -7 -1 -12 3 -12 10 0 9 -3 9 -11 1 -6 -6 -18 -9 -25 -6 -10 4 -12
0 -8 -11 3 -8 9 -15 12 -14 20 2 28 -5 30 -27 1 -14 -2 -25 -7 -25 -17 0 -4
-47 22 -82 15 -19 34 -51 43 -73 14 -33 14 -39 1 -47 -13 -7 -13 -13 -1 -46
13 -39 9 -82 -7 -82 -5 0 -9 10 -9 23 0 29 -37 90 -50 82 -6 -3 -10 -1 -10 4
0 6 -4 11 -9 11 -5 0 -8 -25 -6 -55 1 -30 -2 -52 -6 -49 -5 3 -9 -3 -9 -13 0
-13 -3 -14 -8 -5 -5 7 -6 -15 -4 -48 5 -69 -9 -79 -28 -20 -7 22 -19 40 -25
40 -7 0 -18 14 -25 31 -8 19 -18 28 -27 25 -8 -4 -17 4 -23 19 -13 33 -20 32
-14 -2 l5 -28 -26 29 c-14 16 -25 34 -25 39 0 20 -11 -1 -16 -29 -9 -55 -14
-61 -29 -34 -13 23 -14 24 -15 4 0 -33 -21 -85 -31 -78 -5 3 -9 21 -9 40 0 30
-3 34 -26 34 -19 0 -25 4 -21 14 3 8 -1 20 -9 27 -12 10 -13 9 -8 -7 7 -18 7
-18 -13 -2 -25 23 -44 23 -36 0 6 -15 3 -14 -17 3 l-23 20 11 -21 c11 -21 10
-21 -13 -10 -14 6 -23 16 -21 23 3 7 -1 10 -10 6 -9 -3 -11 -9 -6 -17 9 -10
13 -46 5 -46 -1 0 -9 15 -17 32 l-13 33 -9 -33 -9 -33 -23 22 c-13 11 -21 27
-18 35 3 7 1 16 -4 19 -5 3 -4 18 2 36 8 22 7 34 -1 42 -15 15 -14 27 3 27 16
0 30 108 16 126 -6 6 -7 13 -4 17 3 3 -2 18 -11 34 -16 28 -16 27 -10 -34 4
-38 2 -64 -5 -68 -6 -3 -8 -11 -5 -16 4 -5 1 -17 -4 -26 -9 -16 -10 -16 -11 3
0 12 -7 37 -15 55 l-14 34 -1 -29 0 -30 -21 23 c-12 12 -24 20 -27 17 -3 -4 5
-17 18 -31 23 -24 23 -25 6 -70 -10 -24 -26 -55 -37 -67 l-20 -23 6 36 c4 27
2 38 -10 42 -8 4 -13 12 -10 19 3 7 0 20 -5 28 -9 13 -12 13 -21 -3 -9 -15
-13 -16 -26 -5 -20 16 -43 19 -43 5 0 -8 -4 -7 -12 1 -9 9 -16 8 -30 -5 -12
-10 -18 -12 -18 -4 0 7 -5 9 -10 6 -6 -4 -7 -11 -4 -17 4 -7 2 -8 -4 -4 -7 4
-22 -2 -34 -14 -21 -20 -23 -20 -35 -4 -11 15 -13 -21 -13 -194 l0 -212 719 0
c566 0 720 3 724 13 4 9 6 9 6 0 1 -14 41 -18 41 -5 0 4 9 8 19 8 11 0 18 -3
16 -6 -2 -3 14 -6 35 -6 31 -1 37 2 33 15 -4 13 -2 13 7 -1 13 -21 50 -24 68
-6 8 8 12 8 12 1 0 -14 317 -17 325 -3 9 15 27 12 20 -2 -4 -7 3 -2 14 11 l21
23 1 -23 0 -24 9 22 c7 16 14 21 27 16 10 -4 12 -8 5 -11 -7 -2 -12 -8 -12
-13 0 -13 224 -11 237 2 8 8 13 8 17 0 4 -6 25 -11 47 -11 30 0 39 4 39 18 1
16 1 16 14 0 12 -17 56 -18 660 -18 l646 0 0 424 c0 256 -4 427 -9 431 -6 3
-25 -1 -43 -10 -18 -8 -24 -13 -13 -10 14 5 17 3 9 -5 -8 -8 -17 -7 -35 2 -29
16 -39 51 -12 42 14 -5 15 -4 4 4 -22 16 -24 52 -3 60 17 7 17 8 0 24 -17 17
-18 16 -24 -7 -3 -14 -13 -25 -22 -25 -12 0 -13 3 -5 11 6 6 9 18 6 27 -5 11
-2 13 6 7 9 -5 12 -2 9 10 -1 10 -13 20 -25 21 -13 2 -22 -1 -20 -7 1 -6 -4
-14 -11 -16 -8 -3 -10 1 -6 11 3 9 1 16 -5 16 -6 0 -11 -7 -11 -15 0 -8 -4
-15 -10 -15 -5 0 -10 3 -10 8 1 20 19 29 59 29 35 0 50 -6 68 -26 25 -28 25
-26 -6 37 -8 16 -5 18 25 16 19 -2 34 1 34 7 0 6 -9 9 -20 7 -10 -2 -19 2 -19
7 0 6 8 8 17 7 13 -3 14 -1 6 8 -9 9 -17 9 -32 1 -10 -6 -23 -7 -27 -3 -5 4
-5 2 -2 -4 9 -16 -17 -36 -37 -28 -9 3 -22 1 -29 -4 -10 -9 -13 -5 -11 18 1
22 -2 27 -13 23 -12 -5 -12 -7 -1 -14 11 -7 10 -10 -1 -21 -10 -10 -12 -10 -7
0 4 6 2 12 -3 12 -6 0 -11 -9 -11 -19 0 -11 -6 -22 -12 -24 -10 -4 -10 -6 -1
-6 9 -1 10 -8 3 -26 -7 -18 -6 -25 3 -25 8 0 7 -4 -3 -10 -8 -5 -11 -10 -6
-10 5 0 17 7 26 15 18 16 54 10 44 -7 -3 -5 -12 -4 -21 4 -15 12 -15 11 -2 -9
7 -12 9 -26 5 -30 -5 -4 -11 -2 -13 5 -3 6 -16 12 -29 12 -21 0 -28 9 -26 32
1 3 -4 8 -12 11 -20 8 -15 -24 7 -46 16 -16 17 -21 6 -28 -9 -5 -15 -4 -18 4
-2 7 -15 23 -29 37 -17 17 -23 19 -19 8 7 -19 -20 -32 -47 -22 -22 8 -20 30 5
47 19 14 11 35 -9 23 -5 -3 -9 1 -9 7 0 7 13 14 29 15 15 1 28 -3 28 -8 0 -6
5 -8 10 -5 6 3 10 2 10 -4 0 -5 -6 -12 -12 -14 -8 -4 -9 -6 -2 -6 18 -1 37 27
28 41 -9 13 -10 18 -13 41 -1 7 -6 5 -12 -6 -6 -9 -14 -15 -20 -12 -5 4 -9 2
-9 -2 0 -5 -12 -9 -27 -10 -16 -1 -22 1 -15 4 10 4 9 9 -5 19 -17 13 -17 14 0
8 10 -4 17 -1 17 6 0 6 5 8 10 5 6 -4 8 -11 5 -16 -4 -5 3 -5 16 -1 29 11 45
50 24 58 -24 10 -17 20 13 18 15 -1 32 2 37 7 6 4 17 4 24 0 10 -6 5 -11 -17
-16 -32 -7 -48 -30 -33 -49 4 -6 7 -18 6 -26 -2 -10 5 -16 16 -16 11 0 19 4
19 8 0 4 -6 8 -13 8 -7 0 -13 9 -14 20 -2 18 7 25 23 18 3 -2 12 11 20 29 10
20 23 31 35 30 17 -1 17 -3 2 -19 -21 -24 1 -24 25 0 10 10 23 17 29 15 7 -3
9 4 6 17 -3 12 -9 18 -12 13 -3 -4 -13 -9 -21 -11 -8 -1 1 11 20 29 29 26 36
28 38 14 3 -15 5 -15 19 2 13 16 14 16 9 1 -3 -10 -1 -20 4 -23 5 -3 11 4 15
15 5 17 22 23 53 19 4 -1 6 -4 5 -8 -1 -4 4 -8 12 -8 12 0 14 96 15 651 0 358
-3 646 -8 641 -4 -6 -14 -11 -22 -10 -11 0 -14 9 -12 33 2 17 1 32 -2 32 -3 0
-6 -6 -6 -14z m17 -138 c-3 -8 -6 -5 -6 6 -1 11 2 17 5 13 3 -3 4 -12 1 -19z
m-1677 -202 c0 -2 -7 -6 -15 -10 -8 -3 -15 -1 -15 4 0 6 7 10 15 10 8 0 15 -2
15 -4z m333 -11 c-3 -9 -8 -14 -10 -11 -3 3 -2 9 2 15 9 16 15 13 8 -4z m-633
-175 c0 -5 -2 -10 -4 -10 -3 0 -8 5 -11 10 -3 6 -1 10 4 10 6 0 11 -4 11 -10z
m-1590 -102 c0 -12 -3 -18 -7 -14 -11 10 -12 36 -2 36 5 0 9 -10 9 -22z m1602
-64 c-12 -8 -28 -13 -35 -11 -7 3 -1 9 13 15 37 16 47 14 22 -4z m-66 -6 c4
-7 3 -8 -4 -4 -7 4 -12 2 -12 -3 0 -13 -96 -15 -104 -2 -4 5 16 8 45 7 27 -1
52 1 55 6 7 11 11 10 20 -4z m9 -108 c-3 -5 -16 -10 -28 -9 -20 1 -20 2 3 9
14 4 26 8 28 9 2 1 0 -3 -3 -9z m230 -10 c-3 -5 -11 -10 -16 -10 -6 0 -7 5 -4
10 3 6 11 10 16 10 6 0 7 -4 4 -10z m-240 -40 c-3 -5 -12 -10 -18 -10 -7 0 -6
4 3 10 19 12 23 12 15 0z m1957 -13 c46 -16 63 -32 24 -23 -35 9 -86 15 -68 9
16 -6 15 -23 -2 -23 -16 0 -29 27 -20 41 7 12 22 11 66 -4z m-2012 -11 c0 -2
-9 -6 -20 -9 -11 -3 -20 -1 -20 4 0 5 9 9 20 9 11 0 20 -2 20 -4z m-51 -68
c-35 -16 -76 -32 -91 -35 -36 -7 -43 -19 -26 -40 7 -9 8 -14 2 -10 -10 5 -114
-38 -114 -48 0 -10 38 2 65 19 25 16 42 23 68 25 5 1 6 5 2 10 -3 5 8 9 23 9
16 -1 35 3 43 7 12 8 12 6 0 -8 -7 -9 -10 -17 -5 -17 17 0 -71 -70 -96 -77
-23 -6 -23 -7 -5 -14 11 -4 -2 -5 -30 -3 -69 8 -76 11 -68 30 5 14 2 16 -15
12 -38 -10 -23 6 28 31 56 28 61 39 8 17 -20 -9 -39 -12 -43 -8 -5 4 -5 1 -1
-5 4 -7 3 -13 -2 -13 -6 0 -12 7 -16 15 -4 10 1 15 17 16 12 0 16 3 10 6 -7 2
6 15 30 28 23 12 58 31 77 41 19 11 38 24 42 29 5 7 8 6 8 0 0 -6 -6 -17 -12
-23 -10 -10 -6 -12 22 -8 41 5 111 36 105 47 -3 4 4 5 16 2 17 -5 8 -12 -42
-35z m98 7 c0 -8 -15 -29 -34 -47 -18 -17 -33 -26 -33 -19 0 8 -7 10 -22 5
-27 -8 -23 -2 11 16 15 8 21 8 17 1 -12 -19 10 -12 29 9 19 21 19 21 -14 15
-19 -3 -43 -10 -53 -16 -11 -6 -22 -9 -24 -6 -3 2 13 14 35 25 21 11 41 18 44
15 3 -2 14 0 24 6 10 6 18 11 19 11 0 0 1 -7 1 -15z m1408 -15 c10 -11 16 -20
13 -20 -3 0 -13 9 -23 20 -10 11 -16 20 -13 20 3 0 13 -9 23 -20z m-1375 -30
c0 -5 -5 -10 -11 -10 -5 0 -7 5 -4 10 3 6 8 10 11 10 2 0 4 -4 4 -10z m-185
-10 c-3 -5 -11 -10 -16 -10 -6 0 -7 5 -4 10 3 6 11 10 16 10 6 0 7 -4 4 -10z
m1620 -10 c10 -11 16 -20 13 -20 -3 0 -13 9 -23 20 -10 11 -16 20 -13 20 3 0
13 -9 23 -20z m-110 -10 c10 -11 16 -20 13 -20 -3 0 -13 9 -23 20 -10 11 -16
20 -13 20 3 0 13 -9 23 -20z m-54 -7 c13 -16 12 -17 -3 -4 -17 13 -22 21 -14
21 2 0 10 -8 17 -17z m274 7 c3 -5 2 -10 -4 -10 -5 0 -13 5 -16 10 -3 6 -2 10
4 10 5 0 13 -4 16 -10z m-1625 -15 c0 -2 -10 -9 -22 -15 -22 -11 -22 -10 -4 4
21 17 26 19 26 11z m1555 -25 c10 -11 16 -20 13 -20 -3 0 -13 9 -23 20 -10 11
-16 20 -13 20 3 0 13 -9 23 -20z m-1515 6 c0 -2 -15 -13 -34 -24 -22 -13 -33
-16 -30 -8 7 17 64 46 64 32z m1501 -43 c13 -16 12 -17 -3 -4 -17 13 -22 21
-14 21 2 0 10 -8 17 -17z m85 -18 c13 -8 24 -20 24 -25 0 -18 -20 -11 -44 15
-15 16 -26 21 -33 14 -6 -6 -10 -5 -10 5 0 17 30 13 63 -9z m89 -14 c3 -5 2
-12 -3 -15 -5 -3 -9 1 -9 9 0 17 3 19 12 6z m-1630 -51 c-3 -5 -12 -10 -18
-10 -7 0 -6 4 3 10 19 12 23 12 15 0z m1503 -23 c8 -10 6 -13 -9 -13 -19 0
-24 7 -12 19 8 9 9 9 21 -6z m-1613 -17 c-27 -12 -43 -12 -25 0 8 5 22 9 30 9
10 0 8 -3 -5 -9z m52 4 c-3 -3 -12 -4 -19 -1 -8 3 -5 6 6 6 11 1 17 -2 13 -5z
m1273 -34 c0 -5 -2 -10 -4 -10 -3 0 -8 5 -11 10 -3 6 -1 10 4 10 6 0 11 -4 11
-10z m-1399 -77 c13 -16 12 -17 -3 -4 -17 13 -22 21 -14 21 2 0 10 -8 17 -17z
m4 -33 c-3 -5 -12 -10 -18 -10 -7 0 -6 4 3 10 19 12 23 12 15 0z m55 -5 c-7
-8 -17 -15 -22 -15 -6 0 -5 7 2 15 7 8 17 15 22 15 6 0 5 -7 -2 -15z m1930 0
c-34 -12 -55 -11 -46 3 2 4 22 8 43 8 l38 2 -35 -13z m-2089 -42 c-16 -21 -42
-51 -56 -68 -22 -26 -24 -27 -14 -6 6 14 22 36 35 50 13 13 20 29 17 34 -3 6
-1 7 4 4 6 -4 16 0 23 8 7 8 15 15 17 15 3 0 -9 -17 -26 -37z m119 33 c0 -2
-8 -10 -17 -17 -16 -13 -17 -12 -4 4 13 16 21 21 21 13z m1814 -19 c3 4 6 1 6
-5 0 -7 -2 -12 -5 -12 -10 0 -65 30 -65 36 0 2 13 -2 29 -10 16 -9 31 -12 35
-9z m29 -31 c4 -10 1 -13 -8 -9 -8 3 -12 9 -9 14 7 12 11 11 17 -5z m-83 -68
c0 7 5 10 11 6 8 -4 7 -9 -2 -14 -16 -10 -41 -1 -33 12 4 6 10 5 15 -3 7 -11
9 -11 9 -1z m10 -41 c22 -17 23 -19 4 -13 -15 4 -24 2 -28 -9 -3 -8 -1 -15 4
-15 5 0 7 -8 3 -17 -5 -16 -4 -15 9 1 10 13 17 15 22 8 4 -7 1 -12 -6 -12 -9
0 -9 -3 2 -10 12 -8 11 -10 -7 -10 -13 0 -23 -4 -23 -10 0 -5 -12 0 -26 12
-14 13 -20 24 -15 26 6 2 11 10 11 18 0 8 5 14 10 14 6 0 10 5 10 11 0 5 -3 8
-7 6 -5 -3 -26 -8 -48 -11 -32 -5 -36 -4 -22 5 11 6 26 12 35 14 10 1 16 8 15
13 -4 15 25 4 57 -21z m-180 3 c0 -5 -5 -10 -11 -10 -5 0 -7 5 -4 10 3 6 8 10
11 10 2 0 4 -4 4 -10z m112 -42 c-17 -17 32 -68 59 -61 11 3 19 0 19 -7 0 -7
-7 -10 -15 -6 -8 3 -15 1 -15 -4 0 -6 4 -10 9 -10 5 0 8 -8 6 -17 -1 -10 -10
-17 -19 -17 -9 1 -16 0 -16 -3 0 -9 28 -32 33 -27 3 3 3 -3 0 -15 -3 -12 -1
-21 6 -21 14 0 14 -37 0 -46 -6 -3 -16 -1 -22 5 -9 9 -8 11 4 6 10 -4 16 0 16
10 0 8 -5 15 -10 15 -5 0 -16 8 -23 18 -7 9 -14 12 -14 6 0 -6 -13 -9 -31 -6
-30 4 -31 4 -18 -19 7 -13 12 -25 11 -26 -1 -2 0 -3 3 -3 3 0 10 0 16 0 6 0 9
7 5 15 -5 15 9 21 18 7 5 -9 -18 -43 -31 -44 -24 -2 -33 -11 -23 -23 8 -9 6
-14 -4 -18 -9 -4 -18 -1 -22 5 -5 7 -2 8 6 3 10 -6 12 -4 7 9 -4 10 -1 19 7
22 26 10 -18 73 -51 74 -22 0 -14 -20 12 -32 14 -6 25 -16 25 -22 0 -6 -4 -6
-11 1 -13 13 -39 6 -39 -9 0 -6 7 -8 14 -5 10 4 13 1 9 -9 -5 -13 -8 -13 -18
-2 -18 19 -27 88 -12 88 7 0 6 4 -3 10 -8 5 -11 10 -6 10 5 0 3 7 -4 15 -9 11
-9 15 -1 15 7 0 9 5 6 10 -4 6 -10 8 -15 5 -4 -3 -10 2 -13 9 -3 8 -1 17 6 19
8 3 6 9 -6 19 -18 13 -17 15 4 33 12 11 19 15 16 8 -4 -6 -1 -14 5 -16 7 -3 2
-6 -11 -6 -23 -1 -24 -2 -6 -14 10 -8 15 -18 12 -23 -3 -6 4 -16 15 -23 19
-12 20 -11 14 13 -5 21 -3 26 11 27 15 0 15 2 3 7 -20 9 -24 33 -5 26 9 -4 15
0 15 10 0 9 -5 16 -12 16 -6 0 -9 2 -7 5 8 8 49 -7 43 -16 -3 -5 0 -9 5 -9 6
0 11 -4 11 -10 0 -5 -8 -7 -17 -3 -14 5 -15 3 -6 -7 9 -10 7 -17 -8 -33 -11
-12 -17 -28 -14 -36 3 -8 2 -17 -3 -20 -5 -3 -1 -15 9 -25 17 -17 19 -18 19
-3 0 14 6 16 30 12 17 -3 30 -1 30 4 0 5 -12 11 -27 13 -16 2 -27 8 -26 15 2
7 -4 10 -12 7 -8 -4 -15 -1 -15 5 0 6 16 11 36 11 22 0 33 4 29 11 -4 6 -13 8
-21 5 -13 -5 -9 18 7 40 5 6 6 14 2 17 -3 4 0 13 7 22 7 9 15 13 18 10 3 -3 0
-11 -6 -17z m343 -8 c3 -5 1 -10 -4 -10 -6 0 -11 5 -11 10 0 6 2 10 4 10 3 0
8 -4 11 -10z m-2677 -21 c-2 -6 -8 -10 -13 -10 -5 0 -11 4 -13 10 -2 6 4 11
13 11 9 0 15 -5 13 -11z m62 -15 c0 -2 -11 -4 -25 -4 -14 0 -25 4 -25 9 0 4
11 6 25 3 14 -2 25 -6 25 -8z m2050 12 c0 -3 -4 -8 -10 -11 -5 -3 -10 -1 -10
4 0 6 5 11 10 11 6 0 10 -2 10 -4z m546 -16 c0 -11 -4 -20 -9 -20 -5 0 -3 -8
4 -17 12 -16 12 -17 -2 -5 -10 7 -14 21 -11 37 5 30 18 33 18 5z m-616 6 c0
-2 -7 -7 -16 -10 -8 -3 -12 -2 -9 4 6 10 25 14 25 6z m70 -32 c0 -2 -9 0 -20
6 -11 6 -20 13 -20 16 0 2 9 0 20 -6 11 -6 20 -13 20 -16z m57 0 c-9 -9 -28 6
-21 18 4 6 10 6 17 -1 6 -6 8 -13 4 -17z m431 9 c-2 -11 2 -17 11 -15 9 2 11
-3 7 -14 -4 -11 -2 -15 7 -11 8 3 20 1 28 -4 11 -7 12 -9 0 -9 -9 0 -12 -9 -9
-30 3 -19 1 -29 -6 -27 -6 2 -11 9 -11 15 0 6 -8 20 -17 31 -9 11 -14 22 -11
25 4 3 2 6 -3 6 -6 0 -10 11 -10 25 0 14 4 25 8 25 5 0 8 -8 6 -17z m-102 -5
c5 -8 2 -9 -10 -5 -14 5 -17 3 -12 -8 3 -9 0 -15 -9 -15 -17 0 -17 2 -9 24 7
19 30 21 40 4z m-426 -13 c0 -2 -6 -5 -13 -8 -8 -3 -14 1 -14 8 0 7 6 11 14 8
7 -3 13 -6 13 -8z m625 5 c3 -5 -1 -10 -10 -10 -9 0 -13 5 -10 10 3 6 8 10 10
10 2 0 7 -4 10 -10z m-720 -10 c-3 -5 -11 -10 -16 -10 -6 0 -7 5 -4 10 3 6 11
10 16 10 6 0 7 -4 4 -10z m56 -11 l20 -20 20 22 c16 19 19 20 25 5 6 -15 8
-15 21 1 14 17 14 17 10 -4 -6 -27 1 -29 19 -5 7 9 14 12 14 5 0 -6 -4 -14 -9
-18 -6 -3 -8 -14 -6 -25 3 -14 0 -18 -8 -14 -7 4 -8 3 -4 -1 13 -15 34 -13 33
2 0 9 6 18 14 20 12 4 12 3 2 -5 -11 -7 -8 -11 10 -16 22 -6 23 -7 4 -21 -11
-8 -16 -15 -12 -15 4 0 4 -6 -1 -12 -11 -19 -11 -31 4 -53 20 -31 16 -44 -13
-39 -16 3 -23 1 -19 -6 3 -6 0 -7 -9 -4 -12 4 -13 11 -6 24 5 9 7 20 3 23 -3
4 0 13 6 21 10 12 8 16 -9 21 -13 4 -27 2 -34 -5 -8 -10 -7 -12 5 -7 12 4 17
-1 17 -19 0 -13 -4 -24 -9 -24 -5 0 -8 3 -8 8 3 19 -2 26 -10 13 -6 -9 -8 -4
-8 17 1 17 4 30 7 30 15 -1 21 3 15 12 -4 7 -13 6 -27 -1 -15 -8 -22 -8 -28 1
-6 9 -9 9 -15 0 -4 -7 -2 -16 5 -20 7 -4 10 -13 6 -19 -4 -6 0 -21 9 -34 14
-22 14 -25 0 -37 -9 -7 -18 -10 -22 -6 -3 3 -1 6 4 6 6 0 10 8 8 18 -2 9 -4
21 -4 26 -1 4 -7 6 -15 3 -7 -3 -18 -1 -24 5 -8 8 -13 6 -18 -7 -5 -12 0 -24
14 -36 24 -19 29 -49 10 -49 -8 -1 -6 -6 5 -14 9 -7 17 -18 17 -25 0 -6 -8 -3
-18 7 -10 9 -32 27 -47 40 -16 12 -24 22 -18 22 6 0 16 -6 23 -14 6 -8 18 -12
26 -9 11 4 11 10 -5 32 -20 27 -24 90 -6 92 5 1 17 0 24 -1 12 -1 12 1 3 13
-10 11 -7 16 11 24 14 7 30 7 39 2 10 -5 26 -5 40 0 12 6 19 10 14 10 -5 1 -3
7 3 14 8 11 4 16 -23 24 -31 9 -35 8 -46 -13 -7 -12 -19 -25 -27 -28 -10 -4
-11 -1 -5 12 15 27 4 40 -31 36 -22 -3 -28 -1 -17 5 8 6 18 7 24 4 5 -4 7 1 3
10 -9 23 -1 21 24 -4z m537 -4 c0 -17 -5 -24 -15 -23 -9 2 -20 -5 -27 -15 -9
-14 -8 -20 4 -27 8 -5 10 -10 4 -10 -6 0 -17 7 -24 15 -7 8 -19 15 -27 15 -8
0 -12 4 -9 9 3 5 -1 12 -10 15 -8 3 -13 2 -10 -2 2 -4 1 -14 -4 -22 -8 -13
-12 -13 -26 2 -22 22 -10 38 31 38 19 0 37 5 41 11 3 6 17 9 30 6 13 -2 24 0
24 4 0 5 4 9 9 9 5 0 9 -11 9 -25z m-131 9 c-3 -3 -12 -4 -19 -1 -8 3 -5 6 6
6 11 1 17 -2 13 -5z m266 -10 c7 -8 -10 -44 -21 -44 -4 0 -8 11 -8 25 -2 23
14 33 29 19z m-2463 -8 c0 -2 -8 -10 -17 -17 -16 -13 -17 -12 -4 4 13 16 21
21 21 13z m1615 -10 c20 2 25 0 16 -5 -22 -14 -3 -32 26 -25 21 6 24 4 17 -7
-9 -14 -10 -19 -12 -52 -1 -10 -7 -15 -13 -11 -6 3 -8 17 -5 30 5 19 3 22 -11
17 -11 -4 -14 -3 -9 5 4 7 2 12 -3 12 -6 0 -11 6 -11 14 0 8 -6 14 -12 13 -7
0 -24 1 -38 2 -20 1 -22 3 -10 11 8 5 19 5 25 1 5 -4 23 -6 40 -5z m69 -4 c3
-5 -1 -9 -9 -9 -8 0 -15 4 -15 9 0 4 4 8 9 8 6 0 12 -4 15 -8z m-204 -12 c0
-5 -8 -10 -17 -10 -15 0 -16 2 -3 10 19 12 20 12 20 0z m39 -6 c-7 -8 -6 -13
3 -16 7 -3 3 -7 -10 -10 -18 -5 -20 -3 -12 12 5 9 7 19 5 22 -3 3 2 5 10 5 10
0 12 -4 4 -13z m251 -2 c0 -15 -2 -15 -10 -2 -5 8 -10 11 -10 5 0 -5 -14 -11
-31 -11 -30 -1 -30 0 -10 10 33 18 61 17 61 -2z m75 2 c-9 -9 -19 -13 -23 -10
-3 4 0 11 8 16 24 15 33 11 15 -6z m475 -11 c0 -19 -13 -9 -16 12 -1 8 2 13 7
9 5 -3 9 -12 9 -21z m44 11 c3 -8 2 -12 -4 -9 -6 3 -10 10 -10 16 0 14 7 11
14 -7z m-2487 -9 c0 -8 -4 -12 -9 -9 -4 3 -8 9 -8 15 0 5 4 9 8 9 5 0 9 -7 9
-15z m1458 5 c-3 -5 -12 -10 -18 -10 -7 0 -6 4 3 10 19 12 23 12 15 0z m1154
3 c-1 -5 0 -11 1 -15 7 -21 4 -34 -8 -47 -7 -7 -16 -11 -19 -8 -3 3 2 14 11
23 12 12 14 20 7 27 -14 14 -14 27 -1 27 6 0 9 -3 9 -7z m74 -6 c3 -8 2 -20
-3 -26 -5 -9 -7 -4 -7 13 0 29 2 32 10 13z m-2428 -7 c-3 -5 -12 -10 -18 -10
-7 0 -6 4 3 10 19 12 23 12 15 0z m1335 -13 c0 -1 -11 -3 -24 -3 -17 -1 -23 2
-19 12 4 10 10 11 24 3 10 -5 19 -11 19 -12z m-1536 5 c2 -4 -7 -8 -22 -9 -24
-2 -24 -1 -7 7 11 5 21 9 22 9 1 1 4 -3 7 -7z m399 1 c-7 -2 -19 -2 -25 0 -7
3 -2 5 12 5 14 0 19 -2 13 -5z m46 -27 c-3 -3 -11 5 -18 17 -13 21 -12 21 5 5
10 -10 16 -20 13 -22z m684 19 c-3 -9 -8 -14 -10 -11 -3 3 -2 9 2 15 9 16 15
13 8 -4z m1382 5 c3 -5 -1 -10 -9 -10 -9 0 -16 5 -16 10 0 6 4 10 9 10 6 0 13
-4 16 -10z m-2377 -25 c-3 -3 -9 2 -12 12 -6 14 -5 15 5 6 7 -7 10 -15 7 -18z
m132 -35 c5 0 7 7 4 15 -4 8 -1 15 6 15 6 0 8 -5 4 -11 -4 -8 1 -9 17 -4 24 7
24 7 3 -9 -11 -8 -32 -16 -45 -18 -13 -2 -29 -7 -35 -10 -6 -4 -11 -1 -11 7 0
8 9 15 20 15 17 0 18 2 6 17 -12 14 -12 16 0 8 11 -6 13 -4 8 7 -3 9 -3 19 1
23 4 4 8 -7 10 -24 2 -17 7 -31 12 -31z m55 51 c-3 -2 3 -11 13 -19 10 -8 6
-7 -11 3 -16 9 -35 14 -43 11 -8 -3 -12 -1 -9 4 3 5 17 9 30 8 13 -1 22 -4 20
-7z m295 -1 c0 -5 -2 -10 -4 -10 -3 0 -8 5 -11 10 -3 6 -1 10 4 10 6 0 11 -4
11 -10z m455 0 c3 -5 1 -10 -4 -10 -6 0 -11 5 -11 10 0 6 2 10 4 10 3 0 8 -4
11 -10z m335 6 c0 -3 -4 -8 -10 -11 -5 -3 -10 -1 -10 4 0 6 5 11 10 11 6 0 10
-2 10 -4z m424 -10 c-4 -10 -16 -14 -38 -11 -31 4 -32 3 -32 -33 1 -20 6 -41
11 -45 10 -8 -5 -5 -40 9 -11 5 -13 2 -9 -10 3 -9 10 -14 14 -11 4 3 10 -1 13
-8 3 -8 -6 -12 -26 -11 -17 0 -33 7 -35 14 -3 8 0 10 8 5 8 -5 11 -4 7 3 -10
15 1 39 18 39 8 0 15 -4 15 -9 0 -4 4 -8 10 -8 6 0 6 9 0 24 -9 26 9 64 26 54
5 -3 18 -2 29 3 30 11 35 11 29 -5z m-1669 -6 c3 -5 1 -10 -4 -10 -6 0 -11 5
-11 10 0 6 2 10 4 10 3 0 8 -4 11 -10z m345 -11 c0 -6 -4 -7 -10 -4 -5 3 -10
11 -10 16 0 6 5 7 10 4 6 -3 10 -11 10 -16z m234 6 c-4 -8 -11 -12 -16 -9 -6
4 -5 10 3 15 19 12 19 11 13 -6z m845 -41 c-6 -8 -9 -20 -6 -28 4 -10 1 -13
-8 -10 -10 4 -12 12 -4 31 5 13 7 29 3 34 -3 5 -2 14 2 21 5 7 10 4 16 -12 5
-14 4 -28 -3 -36z m111 23 c0 -7 -3 -8 -8 -2 -4 6 -13 10 -19 11 -35 3 -38 4
-24 13 17 11 51 -4 51 -22z m-1727 9 c3 3 4 -2 2 -13 -2 -10 -4 -22 -4 -26 -1
-5 -10 -5 -21 -2 -19 6 -26 -3 -21 -29 1 -5 -4 -4 -12 2 -8 7 -16 9 -19 6 -3
-2 -8 2 -12 11 -4 12 -2 14 13 5 14 -7 20 -6 25 5 3 8 15 15 26 15 17 0 19 2
8 14 -7 8 -14 10 -16 5 -2 -5 -8 -9 -14 -9 -6 0 -5 6 2 15 9 11 16 12 25 5 6
-5 14 -7 18 -4z m147 8 c0 -18 -17 -34 -34 -33 -16 1 -17 2 -3 6 9 2 17 9 17
15 0 6 -9 8 -20 5 -11 -3 -18 -1 -15 4 5 7 55 10 55 3z m652 -20 c-7 -12 -11
-13 -17 -4 -4 7 -2 16 6 21 18 11 23 4 11 -17z m34 -1 c-10 -10 -19 5 -10 18
6 11 8 11 12 0 2 -7 1 -15 -2 -18z m234 -3 c-8 -5 -22 -10 -30 -9 -9 0 -6 4 8
12 12 7 21 16 19 19 -2 3 1 1 7 -4 8 -6 6 -12 -4 -18z m407 -7 c-3 -3 -11 -2
-17 2 -8 5 -7 11 2 22 12 15 13 14 16 -1 2 -10 1 -20 -1 -23z m73 26 c0 -8 6
-7 17 2 11 10 14 10 9 2 -4 -8 -1 -13 8 -13 19 0 19 -7 2 -40 -11 -18 -23 -25
-55 -27 -22 -1 -43 2 -46 7 -6 10 -3 11 54 14 44 1 52 31 10 34 -16 1 -29 -2
-29 -8 0 -5 -7 -10 -15 -10 -8 0 -15 4 -15 9 0 13 26 32 33 24 4 -3 7 -1 7 5
0 7 5 12 10 12 6 0 10 -5 10 -11z m103 -9 c-3 -12 -8 -19 -11 -16 -5 6 5 36
12 36 2 0 2 -9 -1 -20z m764 5 c0 -8 -4 -12 -9 -9 -5 3 -6 10 -3 15 9 13 12
11 12 -6z m220 9 c-3 -3 -12 -4 -19 -1 -8 3 -5 6 6 6 11 1 17 -2 13 -5z
m-1747 -14 c0 -5 -4 -10 -10 -10 -5 0 -10 5 -10 10 0 6 5 10 10 10 6 0 10 -4
10 -10z m224 2 c3 -5 -1 -9 -9 -9 -8 0 -12 4 -9 9 3 4 7 8 9 8 2 0 6 -4 9 -8z
m61 -2 c3 -6 -1 -7 -9 -4 -18 7 -21 14 -7 14 6 0 13 -4 16 -10z m1142 -22 c-3
-7 -5 -2 -5 12 0 14 2 19 5 13 2 -7 2 -19 0 -25z m54 4 c6 -16 6 -29 -1 -37
-8 -10 -7 -16 6 -23 14 -8 11 -9 -16 -8 -19 1 -36 8 -38 16 -5 13 -3 13 13 0
17 -14 18 -13 12 2 -4 11 -2 17 6 15 7 -1 12 4 11 11 -4 45 -4 45 -19 32 -12
-10 -15 -10 -15 2 0 24 31 17 41 -10z m121 6 c-7 -7 -12 -8 -12 -2 0 14 12 26
19 19 2 -3 -1 -11 -7 -17z m47 13 c7 -5 9 -11 5 -14 -5 -3 -15 1 -22 9 -14 16
-5 18 17 5z m-1828 -14 c-7 -7 -14 -8 -21 -1 -6 6 -2 10 12 11 16 2 18 -1 9
-10z m729 -24 c0 -7 7 -16 15 -19 22 -9 18 -23 -5 -19 -11 2 -22 0 -25 -6 -10
-15 -25 -10 -19 6 4 8 1 15 -5 15 -6 0 -11 -11 -11 -25 0 -14 -5 -25 -11 -25
-5 0 -7 5 -4 10 6 10 -13 14 -47 11 -11 -2 -18 5 -18 16 0 15 2 16 10 3 8 -12
10 -11 10 7 0 12 -5 23 -11 25 -7 2 -10 11 -7 19 4 9 12 0 22 -25 17 -37 18
-38 37 -20 25 23 24 33 -3 28 l-23 -5 23 10 c12 6 22 15 22 20 0 7 9 6 25 -1
14 -6 25 -17 25 -25z m383 30 c-9 -3 -10 -10 -3 -24 6 -11 7 -19 1 -19 -12 0
-23 29 -15 41 3 5 11 9 17 8 9 0 9 -2 0 -6z m807 -3 c0 -5 -4 -10 -10 -10 -5
0 -10 5 -10 10 0 6 5 10 10 10 6 0 10 -4 10 -10z m-2405 -18 c0 -20 -18 -18
-21 1 -1 10 3 16 9 14 7 -2 12 -9 12 -15z m301 3 c-19 -14 -16 -45 4 -45 6 0
9 -4 5 -10 -3 -5 -12 -7 -20 -3 -10 3 -15 -1 -15 -12 0 -9 -6 -15 -12 -12 -7
2 -11 11 -9 18 3 8 5 24 5 36 1 11 4 19 7 17 4 -2 9 3 13 11 3 8 13 15 23 15
17 -1 17 -2 -1 -15z m405 -22 c12 3 19 0 19 -10 0 -8 5 -11 10 -8 6 4 7 11 4
17 -4 7 -2 8 5 4 6 -4 18 -2 26 4 11 9 15 9 15 1 0 -6 -4 -11 -10 -11 -5 0
-10 -5 -10 -11 0 -5 5 -7 10 -4 6 4 9 -3 7 -16 -2 -13 -10 -25 -18 -27 -10 -2
-11 -1 -2 5 19 13 -1 37 -23 28 -11 -5 -23 -7 -28 -6 -5 1 -6 -5 -3 -13 4 -9
2 -18 -3 -21 -6 -4 -10 -1 -10 5 0 6 -5 8 -10 5 -8 -5 -7 -11 1 -21 9 -11 8
-14 -6 -14 -13 0 -16 6 -11 24 10 39 -2 58 -33 51 -22 -5 -27 -2 -27 14 0 11
4 18 7 15 4 -2 10 0 14 5 3 5 14 8 25 6 11 -2 21 2 21 8 1 7 4 1 6 -11 3 -18
10 -23 24 -19z m775 15 c19 -21 19 -21 0 -14 -16 5 -17 4 -6 -9 7 -9 10 -18 6
-22 -3 -3 -6 -1 -6 6 0 7 -4 9 -10 6 -5 -3 -10 1 -10 10 0 9 -5 13 -11 10 -6
-4 -5 2 3 14 7 12 13 21 14 21 0 0 9 -10 20 -22z m364 12 c0 -5 -7 -10 -16
-10 -8 0 -12 5 -9 10 3 6 10 10 16 10 5 0 9 -4 9 -10z m-2017 -52 c4 -10 5
-18 2 -18 -4 0 -35 60 -35 69 0 8 26 -32 33 -51z m407 37 c-7 -9 -15 -13 -19
-10 -3 3 1 10 9 15 21 14 24 12 10 -5z m185 -7 c4 4 6 1 3 -7 -5 -18 -54 -26
-63 -11 -4 7 0 10 11 8 14 -2 18 2 16 17 -2 19 -2 19 11 3 8 -10 18 -14 22
-10z m1775 13 c0 -6 -4 -13 -10 -16 -5 -3 -10 1 -10 9 0 9 5 16 10 16 6 0 10
-4 10 -9z m165 -9 c-3 -3 -11 0 -18 7 -9 10 -8 11 6 5 10 -3 15 -9 12 -12z
m-2413 -11 c-4 -10 -1 -12 9 -7 8 4 4 -1 -8 -10 -24 -17 -30 -34 -12 -34 5 0
7 5 3 12 -5 8 -2 9 12 3 10 -5 34 -8 52 -7 18 1 32 -3 32 -9 0 -6 7 -9 15 -6
11 5 13 0 8 -26 l-6 -32 28 19 c21 14 27 15 23 4 -5 -11 4 -14 37 -14 34 -1
42 2 37 14 -3 10 -1 13 6 8 8 -5 10 -1 5 10 -4 11 -3 15 4 11 7 -5 9 0 6 13
-4 16 -2 19 12 13 14 -5 16 -3 10 7 -6 9 -4 11 4 5 9 -5 10 -10 2 -18 -14 -14
-14 -77 0 -77 5 0 8 3 6 8 -4 7 28 42 38 42 3 0 10 0 16 0 6 0 9 6 6 13 -3 7
5 13 19 13 13 1 21 -2 18 -7 -3 -5 -1 -9 4 -9 5 0 12 9 15 20 3 13 11 18 21
15 54 -17 53 -15 27 -36 -13 -10 -20 -20 -17 -20 3 -1 11 -2 18 -3 6 0 13 -7
16 -14 2 -7 0 -12 -5 -11 -4 1 -16 -1 -26 -6 -14 -6 -15 -10 -6 -21 15 -19 5
-29 -18 -19 -27 12 -37 12 -51 2 -7 -6 -15 -7 -18 -4 -3 3 4 10 15 17 12 6 21
7 21 3 0 -4 6 2 14 12 8 11 12 24 8 29 -3 5 3 6 14 2 15 -6 16 -5 7 5 -10 10
-15 9 -28 -1 -13 -10 -15 -9 -15 6 0 14 -2 16 -9 6 -4 -8 -12 -13 -17 -12 -5
1 -10 -3 -12 -9 -2 -5 6 -8 17 -6 25 5 37 -10 16 -19 -9 -3 -24 3 -35 14 l-21
21 7 -25 c3 -14 1 -33 -6 -43 -11 -17 -11 -17 -6 0 4 12 2 17 -6 14 -7 -2 -11
-11 -9 -18 8 -30 8 -55 -1 -66 -6 -7 -8 -20 -4 -28 3 -9 0 -15 -9 -15 -12 0
-13 -4 -4 -19 10 -14 9 -23 -4 -41 -12 -17 -13 -28 -6 -42 5 -10 6 -18 2 -18
-4 0 -1 -5 7 -11 12 -9 11 -10 -7 -6 -20 4 -23 1 -23 -22 0 -15 6 -33 13 -41
10 -12 9 -12 -5 -1 -15 11 -19 11 -24 -4 -5 -12 -9 -13 -14 -5 -10 17 -31 3
-24 -15 4 -8 10 -13 14 -10 5 3 11 1 15 -5 3 -5 -1 -10 -9 -10 -9 0 -16 -4
-16 -10 0 -5 -5 -10 -11 -10 -8 0 -8 4 0 14 9 10 8 16 -4 26 -14 11 -13 14 2
26 17 13 17 13 -2 15 -11 1 -26 2 -32 2 -18 -1 -16 14 2 21 8 3 15 1 15 -4 0
-6 6 -10 13 -10 9 0 12 10 9 30 -3 19 0 30 8 30 8 0 11 -12 8 -35 -4 -39 6
-46 23 -14 9 17 8 23 -2 30 -12 7 -12 9 0 9 11 0 11 3 1 15 -9 10 -9 15 -1 15
6 0 11 6 11 13 0 7 9 19 20 27 17 13 18 16 4 31 -10 12 -12 23 -6 40 5 13 8
32 7 42 -2 9 3 17 11 17 8 0 11 6 8 15 -4 8 -14 15 -23 15 -12 0 -13 -2 -3 -9
11 -7 11 -9 -2 -14 -9 -4 -16 -11 -16 -17 0 -6 6 -8 13 -5 6 4 1 -3 -13 -15
-14 -12 -19 -19 -12 -15 7 4 12 0 12 -9 0 -10 -6 -13 -17 -9 -10 4 -14 2 -10
-4 4 -6 0 -16 -8 -23 -17 -14 -21 -45 -4 -34 17 10 29 -17 17 -39 -7 -14 -12
-16 -18 -7 -5 8 -10 3 -14 -14 -3 -14 -13 -26 -21 -26 -8 0 -15 -6 -16 -12 0
-7 -4 -4 -9 7 -6 13 -9 15 -9 5 -1 -9 -6 -5 -14 10 -7 14 -23 26 -35 28 -12 2
-20 8 -17 13 3 5 1 17 -4 28 -9 16 -8 18 9 14 11 -3 23 -9 26 -14 7 -12 41
-11 49 1 3 6 -1 7 -9 4 -9 -3 -23 -3 -32 0 -13 5 -14 9 -4 21 10 12 15 12 34
0 13 -8 27 -12 32 -8 5 5 1 -2 -10 -14 -10 -12 -15 -27 -11 -32 9 -15 -8 -14
-23 1 -17 17 -27 2 -12 -17 7 -9 19 -14 27 -11 7 3 13 0 13 -6 0 -7 5 -6 15 2
16 13 21 45 6 36 -12 -8 11 57 24 66 5 4 7 10 3 13 -3 4 0 21 8 40 7 18 11 42
9 54 -2 12 3 25 13 30 14 8 15 12 4 23 -10 10 -16 10 -32 0 -16 -9 -20 -9 -20
0 0 9 -3 9 -12 0 -15 -15 -38 -16 -38 -1 0 5 6 7 13 3 7 -4 8 -3 4 2 -5 5 -28
9 -52 10 -32 1 -45 -2 -50 -15 -5 -12 -4 -13 6 -4 9 9 18 9 31 2 11 -6 22 -8
25 -5 7 7 33 -20 33 -35 0 -7 3 -9 6 -6 4 3 16 1 27 -5 19 -10 19 -11 3 -20
-17 -9 -17 -11 0 -29 12 -13 13 -19 4 -19 -7 0 -10 -7 -6 -15 5 -13 1 -12 -19
2 -13 10 -25 25 -25 33 0 13 -1 13 -10 0 -11 -17 -13 -9 -4 14 5 14 9 14 22 4
12 -10 14 -10 8 0 -4 7 -1 12 9 12 9 0 14 4 11 9 -3 4 -18 6 -33 4 -16 -2 -36
-4 -45 -4 -10 0 -18 -5 -18 -10 0 -6 -5 -7 -11 -3 -8 5 -6 10 5 16 10 6 20 7
23 4 9 -9 44 14 37 25 -4 7 -10 7 -17 0 -16 -16 -30 -13 -23 4 3 8 1 15 -4 15
-6 0 -10 -7 -10 -15 0 -8 -9 -15 -20 -15 -12 0 -20 -7 -21 -17 0 -13 -3 -12
-10 6 -6 14 -6 28 0 35 6 8 2 11 -15 12 -26 2 -42 -31 -30 -63 4 -9 1 -20 -6
-25 -22 -13 -29 -9 -18 12 6 11 8 20 6 20 -3 0 -2 10 3 23 7 17 4 26 -15 40
-26 19 -34 8 -9 -13 19 -16 19 -30 1 -30 -8 0 -13 8 -12 18 0 9 -4 16 -9 15
-6 -1 -11 7 -12 17 -2 20 17 21 40 1 22 -18 36 12 34 72 -2 40 -5 46 -19 41
-10 -3 -18 -1 -18 5 0 10 21 16 51 17 11 0 15 -6 11 -15z m538 -11 c12 -24 12
-24 -6 -9 -10 9 -25 14 -31 12 -7 -3 -13 0 -13 7 0 6 4 9 9 5 5 -3 13 0 16 6
8 12 8 12 25 -21z m85 21 c-6 -11 -45 -21 -45 -12 0 12 8 17 30 18 11 1 18 -2
15 -6z m277 -18 c-2 -16 -10 -34 -16 -42 -15 -19 -15 -61 1 -61 7 0 18 -10 24
-22 6 -13 8 -20 4 -16 -4 4 -14 0 -22 -10 -13 -15 -13 -15 -4 5 16 31 -1 36
-26 7 -12 -13 -16 -24 -10 -24 7 0 17 -11 23 -24 10 -21 9 -24 -5 -19 -9 4
-13 3 -9 -2 4 -4 3 -16 -2 -26 -11 -19 4 -37 15 -19 4 6 11 7 17 4 6 -4 8 -2
4 4 -3 6 -2 13 4 17 5 3 10 -1 10 -10 0 -9 5 -13 10 -10 6 3 18 -1 27 -11 16
-16 16 -16 -5 -10 -17 6 -22 3 -22 -9 0 -15 -2 -15 -17 1 -10 10 -19 12 -21 6
-2 -6 -10 -8 -19 -5 -11 4 -14 2 -9 -5 5 -8 -1 -8 -24 -1 -16 6 -30 15 -30 20
0 6 8 6 19 0 15 -9 20 -7 24 9 3 11 1 20 -5 20 -5 0 -2 7 6 16 12 11 13 20 6
34 -14 25 -27 33 -36 19 -3 -6 0 -15 7 -20 10 -6 11 -9 1 -9 -8 0 -11 -9 -8
-26 3 -17 1 -24 -7 -21 -7 2 -12 10 -12 18 0 8 -4 15 -10 16 -5 1 -9 -7 -9
-19 2 -22 2 -22 -18 2 -17 21 -17 25 -4 32 23 13 20 28 -4 23 -13 -2 -20 2
-20 11 0 17 17 19 23 2 3 -8 9 -3 15 12 7 17 6 29 -2 39 -8 11 -8 13 2 7 8 -5
12 -1 12 12 0 12 7 18 20 17 22 -1 41 -15 21 -15 -7 0 -10 -4 -7 -9 4 -5 0
-12 -6 -14 -9 -4 -10 -6 -1 -6 6 -1 15 4 18 9 5 8 12 7 23 -2 13 -11 15 -10 9
5 -4 11 -3 16 3 12 11 -7 14 8 3 19 -10 9 -11 66 -2 72 4 2 6 -4 4 -16 -6 -31
14 -34 21 -3 12 49 24 61 16 16z m98 10 c0 -17 -8 -16 -26 1 -12 13 -12 15 6
13 11 -1 20 -7 20 -14z m35 7 c3 -5 -1 -10 -9 -10 -9 0 -16 5 -16 10 0 6 4 10
9 10 6 0 13 -4 16 -10z m40 0 c3 -5 1 -10 -4 -10 -6 0 -11 5 -11 10 0 6 2 10
4 10 3 0 8 -4 11 -10z m405 1 c0 -6 -4 -13 -10 -16 -5 -3 -10 1 -10 9 0 9 5
16 10 16 6 0 10 -4 10 -9z m980 -1 c0 -5 -2 -10 -4 -10 -3 0 -8 5 -11 10 -3 6
-1 10 4 10 6 0 11 -4 11 -10z m-738 -21 c12 -3 15 -8 9 -17 -6 -11 -11 -10
-25 3 -9 9 -16 22 -16 28 0 9 2 9 8 1 4 -7 15 -13 24 -15z m-522 7 c0 -3 -4
-8 -10 -11 -5 -3 -10 -1 -10 4 0 6 5 11 10 11 6 0 10 -2 10 -4z m1215 -6 c-3
-5 -12 -10 -18 -10 -7 0 -6 4 3 10 19 12 23 12 15 0z m-2212 -14 c3 -8 1 -17
-6 -19 -9 -3 -9 -10 1 -27 8 -12 9 -19 3 -15 -6 3 -11 1 -11 -4 0 -6 -5 -11
-11 -11 -6 0 -8 7 -5 16 4 9 2 22 -4 29 -8 9 -6 14 5 19 9 3 13 10 10 16 -3 5
-2 10 3 10 6 0 12 -6 15 -14z m459 0 c25 -8 49 -12 52 -9 3 4 6 1 6 -5 0 -16
-18 -24 -23 -10 -4 9 -6 8 -6 -2 -1 -8 -11 -21 -23 -29 -22 -14 -22 -13 -6 11
16 24 16 25 -8 20 -14 -2 -24 0 -24 7 0 6 -5 11 -12 11 -6 0 -4 -8 6 -19 17
-18 16 -20 -4 -26 -13 -4 -19 -12 -16 -21 3 -8 1 -14 -4 -14 -6 0 -10 -5 -10
-11 0 -5 5 -7 12 -3 6 4 8 3 4 -4 -3 -6 -2 -13 4 -17 5 -3 10 -2 10 3 0 5 11
10 25 10 15 0 25 -6 25 -15 0 -8 -4 -12 -8 -9 -4 2 -9 -9 -10 -25 -1 -17 3
-29 10 -29 6 0 9 3 5 6 -3 3 -1 18 4 34 11 31 42 35 47 5 3 -11 0 -15 -7 -11
-6 4 -11 0 -11 -8 0 -9 8 -16 18 -16 14 -1 12 -3 -6 -13 -12 -7 -20 -16 -16
-20 4 -3 1 -13 -6 -22 -11 -13 -10 -14 4 -9 10 4 16 1 16 -7 0 -11 3 -11 11 1
8 11 10 12 7 1 -3 -10 -21 -14 -56 -15 -35 -1 -51 3 -48 10 3 7 -2 21 -10 33
-12 17 -23 21 -52 18 -20 -2 -38 -9 -40 -16 -8 -25 -24 -10 -17 17 4 15 8 33
8 40 0 8 8 10 20 6 11 -3 17 -2 14 3 -3 5 -1 15 5 23 8 12 9 11 4 -4 -6 -16
-4 -17 10 -6 13 12 17 11 25 -1 5 -8 9 -9 9 -3 0 6 -9 19 -19 28 -18 16 -20
16 -41 -6 -20 -20 -22 -21 -15 -3 5 11 9 32 9 46 1 16 7 26 16 26 52 1 70 4
65 13 -3 5 -12 7 -20 3 -20 -7 -19 2 2 27 10 11 18 20 18 20 0 0 21 -7 47 -14z
m367 -8 c1 10 4 10 15 0 17 -16 13 -21 -19 -23 -18 0 -24 4 -20 13 3 7 5 19 6
25 0 7 4 3 9 -8 5 -11 9 -14 9 -7z m891 12 c0 -5 -2 -10 -4 -10 -3 0 -8 5 -11
10 -3 6 -1 10 4 10 6 0 11 -4 11 -10z m317 -12 c-3 -8 -6 -5 -6 6 -1 11 2 17
5 13 3 -3 4 -12 1 -19z m220 2 c1 -11 -3 -23 -9 -26 -7 -4 -8 -2 -4 5 4 6 2
18 -4 26 -10 12 -10 15 2 15 7 0 14 -9 15 -20z m40 14 c-3 -3 -12 -4 -19 -1
-8 3 -5 6 6 6 11 1 17 -2 13 -5z m-2567 -24 c-8 -5 -17 -7 -19 -4 -3 3 1 9 9
14 8 5 17 7 19 4 3 -3 -1 -9 -9 -14z m224 -5 c-15 -23 -33 -37 -20 -16 3 5 -2
12 -12 16 -16 7 -15 8 3 15 38 16 47 12 29 -15z m362 10 c-3 -8 -2 -15 2 -15
10 0 8 -47 -2 -57 -4 -5 -6 -1 -4 7 2 10 -3 14 -17 12 l-20 -4 20 16 c16 13
17 15 3 10 -23 -8 -23 0 -1 26 21 24 27 26 19 5z m59 -5 c-10 -11 -22 -20 -26
-20 -5 0 -1 9 8 20 10 11 22 20 27 20 5 0 1 -9 -9 -20z m515 0 c6 -11 9 -20 8
-20 -2 0 -11 9 -21 20 -9 11 -13 20 -7 20 5 0 14 -9 20 -20z m941 -3 c-13 -13
-26 -3 -16 12 3 6 11 8 17 5 6 -4 6 -10 -1 -17z m-1049 3 c6 0 6 -6 -2 -15
-12 -15 -4 -20 22 -16 4 0 5 -5 2 -13 -3 -8 -1 -17 5 -21 7 -4 11 4 11 19 0
14 5 26 10 26 9 0 7 -27 -6 -67 -6 -20 30 -15 49 7 20 23 39 27 31 5 -4 -8
-10 -15 -14 -15 -5 0 -6 -10 -3 -22 4 -19 3 -20 -6 -7 -11 17 -61 15 -61 -3 0
-5 -4 -7 -10 -3 -5 3 -7 12 -4 19 3 8 1 17 -5 21 -6 3 -11 15 -11 25 0 13 -5
17 -14 14 -10 -4 -14 0 -12 13 2 10 -4 24 -13 31 -14 12 -14 13 2 8 10 -3 23
-6 29 -6z m298 -11 c0 -6 -4 -8 -9 -4 -12 7 -33 -29 -23 -40 4 -5 -2 -5 -12
-1 -19 7 -19 6 -1 -14 19 -21 11 -27 -14 -11 -12 8 -12 14 -1 40 7 17 16 28
21 25 5 -3 12 2 15 10 6 16 24 12 24 -5z m85 11 c3 -5 1 -10 -4 -10 -6 0 -11
5 -11 10 0 6 2 10 4 10 3 0 8 -4 11 -10z m100 0 c-3 -5 -12 -10 -18 -10 -7 0
-6 4 3 10 19 12 23 12 15 0z m-1665 -4 c0 -3 -4 -8 -10 -11 -5 -3 -10 -1 -10
4 0 6 5 11 10 11 6 0 10 -2 10 -4z m1000 -6 c0 -5 -4 -10 -10 -10 -5 0 -10 5
-10 10 0 6 5 10 10 10 6 0 10 -4 10 -10z m325 -19 c1 -12 -3 -17 -12 -14 -9 4
-10 9 -3 18 5 6 8 15 5 18 -3 4 -2 5 2 2 4 -3 7 -14 8 -24z m289 17 c-3 -4 6
-8 20 -8 14 0 28 -5 32 -12 4 -7 3 -8 -4 -4 -7 4 -12 2 -12 -3 0 -6 5 -11 10
-11 6 0 10 -5 10 -11 0 -6 -7 -9 -15 -5 -8 3 -16 0 -16 -7 -1 -7 -2 -19 -3
-27 0 -8 -6 -14 -12 -13 -7 1 -14 -7 -17 -18 -4 -16 -2 -19 11 -15 14 5 14 4
-1 -8 -17 -13 -17 -15 3 -34 14 -13 18 -22 11 -27 -6 -3 -11 -1 -11 4 0 6 -5
11 -11 11 -6 0 -9 -7 -5 -15 3 -9 0 -15 -8 -15 -8 0 -13 8 -11 18 2 9 4 17 5
17 1 0 3 20 5 45 2 25 3 48 4 52 1 4 9 5 19 1 9 -3 14 -3 10 1 -4 5 -3 18 2
31 5 13 6 26 3 29 -11 11 -32 -15 -26 -32 4 -15 3 -15 -6 -2 -7 10 -11 11 -11
3 0 -7 -4 -13 -9 -13 -5 0 -7 9 -4 20 3 11 9 17 14 14 5 -3 9 0 9 5 0 6 -6 11
-12 12 -10 0 -10 2 0 6 6 2 10 8 8 12 -3 4 1 8 9 8 8 0 12 -4 9 -9z m103 6
c-3 -3 -12 -4 -19 -1 -8 3 -5 6 6 6 11 1 17 -2 13 -5z m416 -26 c-5 -10 -33
10 -33 23 0 5 9 4 19 -3 11 -7 17 -16 14 -20z m-769 8 c-6 -15 33 -58 63 -71
12 -5 14 -9 6 -12 -7 -3 -13 -11 -13 -19 0 -8 6 -14 13 -15 10 0 10 -2 0 -6
-7 -2 -13 -11 -13 -19 0 -14 8 -17 42 -17 10 0 15 -4 12 -8 -3 -5 0 -9 6 -9 6
0 9 12 8 26 -2 16 2 28 10 30 7 1 8 0 2 -3 -14 -6 -13 -24 1 -20 6 1 14 -5 16
-13 4 -13 3 -13 -6 0 -9 13 -11 12 -11 -4 0 -12 5 -16 15 -12 21 8 19 0 -7
-26 -15 -15 -20 -17 -15 -5 5 14 2 15 -19 7 -32 -13 -37 -12 -29 0 3 6 1 10
-5 10 -6 0 -8 6 -5 13 4 6 -1 3 -9 -7 -19 -23 -20 -32 -6 -41 8 -5 7 -11 -1
-21 -9 -11 -8 -14 3 -14 7 0 14 -9 15 -21 2 -16 -1 -18 -11 -10 -10 9 -15 6
-19 -11 -4 -12 -1 -28 5 -35 8 -10 6 -13 -6 -13 -9 0 -16 5 -16 10 0 6 -8 10
-17 11 -16 0 -15 1 2 8 19 8 19 8 0 20 -14 9 -15 11 -3 7 18 -5 30 24 23 59
-2 11 -4 24 -4 29 -1 5 -9 2 -18 -5 -11 -10 -14 -10 -9 -1 5 8 0 12 -13 12
-12 0 -21 6 -21 14 0 8 -5 18 -12 22 -7 4 -8 3 -4 -4 5 -8 0 -12 -13 -12 -13
0 -19 6 -18 18 1 12 9 17 31 15 17 -1 39 -2 49 -2 9 -1 17 -8 17 -17 0 -8 5
-12 10 -9 6 4 8 11 5 16 -4 5 -1 9 4 9 6 0 11 7 11 15 0 8 -4 15 -10 15 -5 0
-10 -4 -10 -8 0 -18 -45 -5 -49 14 -3 14 0 16 10 7 17 -13 49 -9 60 9 9 14 7
19 -13 22 -7 1 -22 7 -33 13 -11 5 -26 8 -32 6 -7 -3 -13 0 -13 5 0 6 15 9 33
7 28 -4 29 -3 12 7 -29 16 -29 16 -15 33 16 19 21 19 14 1z m166 -1 c-8 -10
-17 -51 -19 -87 -1 -10 -6 -18 -11 -18 -6 0 -8 13 -5 31 6 35 -3 58 -16 38 -4
-7 -11 -11 -14 -7 -9 9 37 53 57 53 11 1 14 -3 8 -10z m869 -30 c0 -17 -2 -16
-10 5 -8 20 -12 22 -19 10 -5 -8 -10 -10 -10 -4 0 5 5 15 12 22 14 14 28 -2
27 -33z m117 28 c-2 -9 -8 -19 -15 -21 -10 -3 -10 0 -2 17 14 25 20 27 17 4z
m-1375 -3 c5 0 9 -9 9 -21 0 -15 5 -19 15 -15 16 6 17 4 20 -36 1 -16 -2 -28
-8 -28 -5 0 -7 7 -3 15 3 8 -1 18 -8 22 -7 5 -19 19 -26 33 -8 15 -15 20 -18
12 -5 -16 -22 -5 -22 15 0 10 6 13 16 9 9 -3 20 -6 25 -6z m254 0 c3 -5 1 -10
-4 -10 -6 0 -11 5 -11 10 0 6 2 10 4 10 3 0 8 -4 11 -10z m166 -24 c-10 -11
-8 -18 9 -33 l20 -20 -30 0 c-17 0 -27 3 -22 6 4 3 8 15 8 26 2 53 4 59 16 47
8 -8 8 -15 -1 -26z m175 21 c18 7 18 6 1 -11 -14 -14 -20 -16 -32 -6 -8 7 -12
17 -9 22 4 7 9 6 14 -1 4 -7 15 -9 26 -4z m344 -2 c7 -9 10 -18 7 -22 -4 -3
-9 2 -13 11 -9 24 -26 8 -18 -17 7 -22 6 -22 -14 -3 -12 10 -19 22 -17 26 3 5
-5 6 -17 3 -19 -4 -20 -3 -8 6 22 16 66 13 80 -4z m108 1 c-2 -1 -10 -7 -19
-14 -13 -9 -16 -9 -16 3 0 8 4 12 9 9 4 -3 8 0 8 6 0 6 5 8 11 5 6 -4 9 -8 7
-9z m47 4 c3 -5 1 -10 -4 -10 -6 0 -11 -10 -12 -22 -1 -22 -1 -22 -8 2 -5 14
-6 28 -4 33 6 10 21 9 28 -3z m101 1 c-4 -5 0 -12 6 -15 7 -2 2 -3 -12 -1 -14
2 -32 4 -40 5 -8 1 -1 6 15 10 17 4 31 8 33 9 2 0 1 -3 -2 -8z m-2174 -33 c-7
-7 -10 -5 -7 8 5 29 6 30 12 16 3 -8 1 -18 -5 -24z m1116 14 c-17 -3 -23 -15
-19 -35 1 -5 -3 -6 -9 -2 -5 3 -10 15 -10 26 0 11 5 17 10 14 6 -3 10 -2 10 4
0 6 8 7 18 3 16 -6 16 -7 0 -10z m524 0 c-7 -2 -10 -8 -6 -13 3 -5 1 -9 -4 -9
-12 0 -23 26 -15 33 3 3 12 3 21 -1 10 -4 12 -7 4 -10z m746 -7 c-3 -3 -9 2
-12 12 -6 14 -5 15 5 6 7 -7 10 -15 7 -18z m-1642 -31 c-5 -12 -8 -13 -20 -2
-12 11 -12 16 2 32 15 16 17 17 20 2 2 -10 1 -24 -2 -32z m1741 27 c0 -11 -5
-18 -9 -15 -4 3 -5 11 -1 19 7 21 12 19 10 -4z m-1807 -6 c0 -8 -4 -15 -10
-15 -5 0 -7 7 -4 15 4 8 8 15 10 15 2 0 4 -7 4 -15z m860 -6 c0 -6 -4 -7 -10
-4 -5 3 -10 11 -10 16 0 6 5 7 10 4 6 -3 10 -11 10 -16z m157 14 c-11 -3 -16
-11 -13 -21 3 -9 1 -24 -4 -32 -9 -13 -11 -13 -20 0 -5 8 -9 20 -9 25 0 6 3 4
6 -2 9 -24 23 -13 17 12 -5 22 -3 25 17 24 18 -1 19 -2 6 -6z m129 -19 c-21
-20 -28 -17 -16 6 6 11 15 18 21 15 5 -4 3 -12 -5 -21z m-828 -39 c-7 -8 -38
23 -38 38 0 6 10 2 22 -10 12 -13 19 -25 16 -28z m586 29 c9 -22 8 -24 -9 -24
-8 0 -15 9 -15 20 0 24 15 27 24 4z m166 12 c0 -3 -4 -8 -10 -11 -5 -3 -10 -1
-10 4 0 6 5 11 10 11 6 0 10 -2 10 -4z m-120 -29 c0 -11 -1 -18 -3 -16 -1 2
-8 11 -15 20 -9 13 -9 16 3 16 8 0 15 -9 15 -20z m-460 3 c0 -5 -7 -10 -16
-10 -8 0 -12 5 -9 10 3 6 10 10 16 10 5 0 9 -4 9 -10z m360 -9 c-7 -14 -6 -21
3 -24 6 -2 8 -8 4 -13 -4 -5 -12 -2 -16 5 -10 16 -3 51 11 51 5 0 4 -8 -2 -19z
m-1636 -8 c3 -8 2 -12 -3 -9 -5 3 -12 -2 -15 -11 -5 -11 -10 -13 -17 -6 -13
13 -2 40 16 40 8 0 17 -7 19 -14z m56 -2 c0 -5 -9 -11 -20 -14 -22 -6 -28 8
-7 16 19 8 27 8 27 -2z m285 -1 c-3 -5 -11 -10 -16 -10 -6 0 -7 5 -4 10 3 6
11 10 16 10 6 0 7 -4 4 -10z m298 -10 c4 -14 0 -20 -11 -21 -16 -1 -16 -2 -1
-6 18 -4 15 -43 -4 -43 -6 0 -8 -3 -4 -6 3 -3 2 -17 -4 -31 -6 -17 -6 -22 2
-17 6 3 15 0 21 -7 7 -12 9 -11 7 1 -3 30 1 39 16 34 9 -4 15 0 15 10 0 19 16
21 26 4 4 -7 3 -8 -4 -4 -9 5 -9 1 -3 -17 6 -16 6 -28 -2 -36 -18 -18 -31 -13
-16 6 10 11 10 14 2 9 -8 -4 -13 -2 -14 6 0 7 -5 2 -10 -11 -7 -19 -14 -22
-37 -17 -17 4 -22 3 -14 -2 11 -7 10 -10 -3 -16 -9 -3 -21 -6 -26 -6 -17 0 -9
50 11 70 12 12 15 22 9 26 -8 4 -7 9 1 14 7 5 0 9 -19 12 -17 2 -31 1 -31 -4
0 -4 7 -8 15 -8 8 0 15 -4 15 -10 0 -5 -4 -10 -9 -10 -5 0 -9 -17 -9 -37 0
-24 -6 -42 -18 -51 -18 -13 -18 -14 4 -32 13 -11 29 -17 36 -14 8 3 17 0 21
-6 3 -6 3 -10 -2 -9 -20 4 -24 -2 -12 -18 7 -10 2 -8 -12 5 -26 22 -49 29 -49
14 0 -5 -6 -9 -12 -9 -7 0 -17 -2 -23 -3 -29 -7 -36 1 -30 30 4 20 3 30 -5 30
-7 0 -10 -7 -6 -15 3 -9 0 -15 -9 -15 -8 0 -15 9 -15 20 0 14 9 21 35 26 19 3
32 10 29 15 -3 5 -9 7 -13 5 -4 -3 -13 5 -20 16 -11 18 -11 20 3 15 21 -8 20
-3 -1 19 -13 13 -14 19 -5 22 6 2 12 12 12 22 0 10 5 22 10 25 6 4 8 11 5 16
-4 5 1 9 9 9 19 0 20 -5 3 -22 -10 -11 -10 -16 5 -30 10 -10 20 -13 23 -8 4 6
1 10 -4 10 -6 0 -11 5 -11 11 0 6 7 9 15 5 8 -3 15 -4 15 -2 0 3 3 13 7 23 6
16 5 17 -13 3 -18 -14 -18 -14 -5 3 9 12 17 14 26 7 6 -5 15 -7 19 -3 4 4 4 0
0 -10 -4 -12 -1 -17 10 -17 9 0 19 7 22 15 4 8 10 12 15 9 5 -3 6 2 3 10 -3 9
-2 16 4 16 5 0 12 -9 15 -20z m1030 -37 c-6 -16 -19 -17 -28 -3 -4 6 -1 9 7 8
13 -3 14 3 3 37 -4 14 -2 13 8 -4 8 -14 13 -31 10 -38z m317 22 c0 -5 -4 -4
-9 3 -6 11 -12 10 -26 -5 -13 -13 -20 -14 -23 -5 -2 7 -8 10 -13 6 -5 -3 -9 2
-9 12 0 14 2 15 17 3 13 -11 17 -11 20 -1 3 6 9 10 14 6 5 -3 9 1 9 8 0 9 3 9
10 -2 5 -8 10 -19 10 -25z m-790 8 c0 -9 -3 -13 -7 -10 -3 4 -14 0 -23 -8 -14
-13 -19 -13 -36 0 -18 14 -17 14 13 15 17 0 35 5 38 10 9 15 15 12 15 -7z
m323 -15 c-2 -4 -13 -2 -23 4 -13 8 -15 15 -8 19 12 8 38 -12 31 -23z m-463 6
c0 -8 -5 -12 -10 -9 -6 4 -8 11 -5 16 9 14 15 11 15 -7z m46 -20 c-5 -18 -3
-22 9 -17 11 4 18 -1 22 -16 3 -12 10 -18 17 -14 6 3 8 3 4 -2 -9 -10 10 -47
21 -40 5 2 15 -3 22 -12 12 -14 11 -15 -6 -10 -42 13 -58 -30 -24 -65 15 -16
23 -19 26 -10 3 6 9 9 15 6 5 -3 18 3 29 15 20 21 39 20 39 -2 0 -8 -3 -8 -9
1 -6 11 -9 10 -13 -5 -3 -11 -15 -19 -28 -20 -13 -1 -27 -8 -31 -15 -11 -16
-12 -48 -1 -32 10 15 41 14 35 -2 -2 -6 0 -15 6 -19 6 -3 11 -11 11 -16 0 -13
-25 11 -33 31 -4 10 -6 8 -6 -7 -1 -12 5 -23 12 -26 6 -3 2 -4 -9 -4 -15 1
-20 6 -16 15 3 10 0 13 -9 10 -8 -3 -13 -12 -11 -21 1 -8 -2 -18 -8 -22 -15
-9 -13 38 3 54 10 10 7 11 -14 6 -21 -5 -27 -2 -32 14 -3 14 -10 19 -21 15 -9
-3 -16 -1 -16 6 0 6 5 8 11 5 6 -4 9 0 7 10 -2 10 2 20 9 22 7 3 9 -3 6 -18
-5 -16 -3 -20 6 -15 7 5 21 0 32 -10 10 -9 19 -14 19 -11 0 4 0 9 0 12 0 3 -2
5 -5 5 -8 -1 -35 27 -35 37 -1 14 -38 53 -51 53 -8 0 -6 -7 6 -20 10 -11 14
-20 9 -20 -13 0 -41 20 -29 20 6 0 1 8 -10 17 -16 13 -17 15 -2 10 9 -4 17 -2
17 3 0 11 39 9 41 -2 1 -4 2 -12 3 -17 0 -5 4 -13 9 -17 12 -13 8 41 -5 56
-11 12 -10 12 5 1 9 -8 20 -11 23 -8 4 3 -9 15 -27 26 -25 16 -29 21 -15 21
11 0 16 3 12 8 -4 4 -13 7 -19 7 -6 0 -13 15 -14 33 -2 22 1 31 8 26 6 -3 8
-17 5 -30z m314 15 c0 -6 -4 -7 -10 -4 -5 3 -10 11 -10 16 0 6 5 7 10 4 6 -3
10 -11 10 -16z m315 -18 c1 -26 -3 -31 -23 -31 -21 0 -22 1 -8 16 20 20 20 34
1 34 -8 0 -15 4 -15 10 0 5 10 8 23 6 17 -2 22 -10 22 -35z m145 35 c0 -3 -4
-8 -10 -11 -5 -3 -10 -1 -10 4 0 6 5 11 10 11 6 0 10 -2 10 -4z m-1835 -33
c-2 -16 -4 -30 -4 -33 -1 -3 -5 2 -10 9 -6 9 -6 22 0 33 14 25 18 22 14 -9z
m1185 23 c0 -3 -4 -8 -10 -11 -5 -3 -10 -1 -10 4 0 6 5 11 10 11 6 0 10 -2 10
-4z m40 -6 c0 -5 -4 -10 -9 -10 -6 0 -13 5 -16 10 -3 6 1 10 9 10 9 0 16 -4
16 -10z m780 0 c0 -5 -5 -10 -11 -10 -5 0 -7 5 -4 10 3 6 8 10 11 10 2 0 4 -4
4 -10z m75 0 c3 -6 0 -17 -8 -25 -13 -13 -17 -12 -29 2 -9 12 -9 15 0 9 17
-10 38 4 21 15 -10 6 -10 9 -2 9 6 0 15 -5 18 -10z m-495 -20 c0 -5 -4 -10
-10 -10 -5 0 -10 5 -10 10 0 6 5 10 10 10 6 0 10 -4 10 -10z m168 -10 c-7 -10
-14 -17 -17 -15 -4 4 18 35 25 35 2 0 -1 -9 -8 -20z m42 10 c0 -5 -5 -10 -11
-10 -5 0 -7 5 -4 10 3 6 8 10 11 10 2 0 4 -4 4 -10z m380 -6 c0 -2 -9 -4 -20
-4 -11 0 -20 4 -20 9 0 5 9 7 20 4 11 -3 20 -7 20 -9z m-1976 -19 c-4 -9 3
-16 19 -20 14 -4 33 -15 43 -26 16 -18 15 -18 -24 1 -23 11 -46 20 -52 20 -13
0 -13 17 0 25 6 4 7 11 4 17 -4 7 -2 8 4 4 6 -4 9 -13 6 -21z m106 15 c0 -5
-2 -10 -4 -10 -3 0 -8 5 -11 10 -3 6 -1 10 4 10 6 0 11 -4 11 -10z m1159 -9
c8 -14 7 -20 -4 -25 -8 -3 -15 -1 -15 3 0 5 -3 16 -6 25 -9 23 13 20 25 -3z
m88 13 c-3 -3 -12 -4 -19 -1 -8 3 -5 6 6 6 11 1 17 -2 13 -5z m267 -18 c-6
-16 -24 -23 -24 -8 0 10 22 33 27 28 2 -2 1 -11 -3 -20z m436 14 c0 -5 -5 -10
-11 -10 -5 0 -7 5 -4 10 3 6 8 10 11 10 2 0 4 -4 4 -10z m-2090 -10 c0 -5 -7
-10 -15 -10 -8 0 -15 5 -15 10 0 6 7 10 15 10 8 0 15 -4 15 -10z m680 -5 c11
-13 10 -14 -4 -9 -9 3 -16 10 -16 15 0 13 6 11 20 -6z m305 6 c-3 -5 -1 -12 5
-16 5 -3 10 -1 10 5 0 6 5 8 10 5 6 -4 7 -11 4 -17 -4 -7 -2 -8 4 -4 7 4 20 2
29 -4 13 -8 14 -10 3 -8 -15 3 -20 -2 -20 -23 0 -5 4 -7 10 -4 6 3 7 -1 3 -10
-5 -13 -7 -14 -14 -3 -6 8 -9 2 -9 -20 0 -19 -4 -31 -10 -27 -5 3 -8 24 -6 46
4 41 -10 62 -25 38 -5 -8 -9 -12 -10 -9 -10 50 -9 60 6 60 9 0 14 -4 10 -9z
m769 -7 c4 -10 1 -14 -6 -12 -15 5 -23 28 -10 28 5 0 13 -7 16 -16z m-1229 -3
c-3 -5 -1 -12 5 -16 13 -8 13 -25 -1 -25 -5 0 -8 4 -4 9 3 5 1 12 -5 16 -10 6
-5 25 6 25 3 0 3 -4 -1 -9z m932 3 c-3 -3 -12 -4 -19 -1 -8 3 -5 6 6 6 11 1
17 -2 13 -5z m431 -30 c-4 -3 -12 5 -18 18 -12 22 -12 22 6 6 10 -10 15 -20
12 -24z m-1929 12 c9 -10 8 -15 -3 -19 -10 -4 -14 0 -13 14 2 23 1 23 16 5z
m2202 -3 c13 -16 12 -17 -3 -4 -17 13 -22 21 -14 21 2 0 10 -8 17 -17z m-2155
-7 c3 -8 12 -12 20 -9 8 3 14 0 14 -6 0 -19 -34 -12 -48 9 -7 13 -8 20 -2 20
6 0 13 -6 16 -14z m1444 -2 c0 -2 -7 -4 -15 -4 -8 0 -15 4 -15 10 0 5 7 7 15
4 8 -4 15 -8 15 -10z m390 12 c0 -3 -4 -8 -10 -11 -5 -3 -10 -1 -10 4 0 6 5
11 10 11 6 0 10 -2 10 -4z m107 -18 c-3 -8 -6 -5 -6 6 -1 11 2 17 5 13 3 -3 4
-12 1 -19z m-2027 -5 c0 -3 -7 -3 -15 1 -10 4 -15 -1 -15 -16 0 -18 2 -19 18
-7 15 13 16 12 4 -3 -16 -19 -43 -13 -35 8 3 8 -1 14 -8 15 -8 0 -5 4 6 8 19
8 45 4 45 -6z m2300 7 c0 -5 -4 -10 -10 -10 -5 0 -10 5 -10 10 0 6 5 10 10 10
6 0 10 -4 10 -10z m-1503 -6 c-3 -3 -12 -4 -19 -1 -8 3 -5 6 6 6 11 1 17 -2
13 -5z m1050 -9 c0 -8 -4 -12 -9 -9 -5 3 -6 10 -3 15 9 13 12 11 12 -6z
m-1567 -27 c0 -4 -5 -10 -12 -14 -7 -4 -8 -3 -4 4 5 8 0 12 -13 12 -20 0 -27
10 -15 23 7 7 44 -14 44 -25z m900 18 c9 -3 16 -16 17 -27 2 -19 1 -18 -17 3
-11 13 -19 18 -20 11 0 -7 -10 -17 -22 -23 -21 -10 -21 -10 -5 3 10 8 15 21
11 30 -6 16 6 17 36 3z m110 10 c0 -2 -7 -9 -15 -16 -13 -11 -14 -10 -9 4 5
14 24 23 24 12z m220 -7 c0 -11 -27 -12 -34 -1 -2 4 4 9 15 9 10 1 19 -2 19
-8z m127 -3 c0 -8 -6 -12 -14 -9 -7 3 -10 9 -7 14 8 14 21 11 21 -5z m-1573
-5 c-9 -10 -44 -11 -44 -1 0 5 11 9 25 8 13 -1 22 -4 19 -7z m647 -18 c-12 -8
-21 -22 -22 -31 0 -12 -4 -9 -12 8 -16 35 -17 36 -27 20 -8 -13 -12 -13 -26 2
-16 16 -15 17 23 13 22 -2 46 0 53 5 23 14 33 -1 11 -17z m654 18 c3 -5 1 -12
-5 -16 -5 -3 -10 1 -10 9 0 18 6 21 15 7z m58 2 c-7 -2 -19 -2 -25 0 -7 3 -2
5 12 5 14 0 19 -2 13 -5z m600 -24 c-9 -9 -12 -7 -10 9 1 14 5 18 11 12 7 -7
6 -14 -1 -21z m-1268 11 c-9 -14 -45 -32 -45 -23 0 7 24 22 48 32 2 0 0 -3 -3
-9z m70 0 c3 -6 -1 -7 -9 -4 -18 7 -21 14 -7 14 6 0 13 -4 16 -10z m75 0 c-10
-6 -11 -10 -2 -10 6 0 12 -5 12 -10 0 -7 -7 -7 -21 1 -17 9 -19 13 -8 20 8 5
19 9 24 9 6 0 3 -5 -5 -10z m-839 -18 c0 -4 2 -15 4 -25 2 -9 0 -15 -5 -12 -4
3 -11 -2 -14 -10 -3 -9 1 -18 9 -21 21 -9 18 -19 -6 -21 -16 -2 -20 3 -18 25
2 15 8 33 13 40 7 10 4 12 -16 7 -17 -4 -25 -2 -25 7 0 13 56 23 58 10z m1243
-7 c-4 -8 -1 -15 5 -15 6 0 11 -9 11 -20 0 -11 7 -23 15 -26 16 -7 21 -24 6
-24 -5 0 -16 15 -25 33 -17 31 -17 31 -13 5 5 -30 -7 -38 -17 -12 -4 10 -14
14 -26 11 -11 -3 -20 -1 -20 4 0 5 11 11 25 15 25 6 35 24 14 24 -5 0 -7 5 -4
10 10 16 35 12 29 -5z m71 -25 c3 0 3 5 -1 12 -4 7 -3 8 4 4 18 -11 15 -39 -4
-32 -8 3 -12 2 -9 -4 3 -6 0 -10 -8 -10 -18 0 -30 27 -16 35 5 4 7 11 3 16 -3
5 -10 6 -16 3 -7 -5 -8 -2 -3 6 6 10 12 8 26 -8 9 -12 20 -22 24 -22z m-845 9
c0 -5 -4 -9 -8 -9 -5 0 -9 7 -9 15 0 8 4 12 9 9 4 -3 8 -9 8 -15z m19 -5 c-21
-25 0 -28 22 -3 11 13 17 18 14 11 -10 -20 25 -53 49 -47 12 3 16 2 9 -1 -7
-3 -9 -13 -6 -22 4 -13 3 -14 -5 -3 -5 7 -14 11 -19 8 -6 -4 -27 2 -49 13 -23
12 -42 16 -47 11 -6 -6 -17 -2 -30 10 -15 13 -24 16 -33 8 -9 -7 -14 -6 -20 3
-4 7 -4 10 1 6 4 -4 14 -3 21 3 10 8 18 7 29 -5 19 -19 55 -6 55 20 0 8 5 12
10 9 8 -5 7 -11 -1 -21z m518 6 c-5 -31 -17 -37 -15 -7 1 15 6 27 10 27 4 0 7
-9 5 -20z m113 16 c0 -3 -4 -8 -10 -11 -5 -3 -10 -1 -10 4 0 6 5 11 10 11 6 0
10 -2 10 -4z m485 -5 c-3 -5 1 -15 8 -23 8 -7 12 -19 9 -26 -2 -6 1 -12 7 -12
6 0 11 -5 11 -11 0 -20 -27 10 -34 36 -4 14 -11 25 -16 25 -6 0 -10 5 -10 10
0 6 7 10 16 10 8 0 13 -4 9 -9z m-1681 -16 c-4 -8 -8 -15 -10 -15 -2 0 -4 7
-4 15 0 8 4 15 10 15 5 0 7 -7 4 -15z m876 -29 c0 -12 -5 -7 -19 24 -11 24
-11 24 3 6 9 -11 16 -24 16 -30z m560 29 c0 -8 -4 -15 -10 -15 -5 0 -10 7 -10
15 0 8 5 15 10 15 6 0 10 -7 10 -15z m146 6 c-4 -5 0 -12 6 -14 7 -3 3 -6 -10
-6 -16 -1 -21 -5 -16 -13 5 -8 1 -8 -12 2 -29 22 -30 24 -12 17 9 -3 22 1 28
9 14 16 24 19 16 5z m63 -13 c12 -3 12 -6 -2 -11 -9 -3 -17 -2 -17 4 0 6 -4 7
-10 4 -6 -3 -7 1 -3 10 3 9 9 12 12 7 3 -5 13 -11 20 -14z m86 12 c3 -5 2 -10
-4 -10 -5 0 -13 5 -16 10 -3 6 -2 10 4 10 5 0 13 -4 16 -10z m165 0 c0 -5 -4
-10 -10 -10 -5 0 -10 5 -10 10 0 6 5 10 10 10 6 0 10 -4 10 -10z m-1153 -21
c2 -16 -1 -19 -9 -11 -5 5 -7 15 -4 21 10 15 12 14 13 -10z m181 -10 c-3 -8
-7 -3 -11 10 -4 17 -3 21 5 13 5 -5 8 -16 6 -23z m574 16 c14 0 20 -15 6 -15
-9 0 -22 8 -29 17 -12 15 -12 16 1 8 8 -6 18 -10 22 -10z m313 5 c-3 -5 -10
-10 -16 -10 -5 0 -9 5 -9 10 0 6 7 10 16 10 8 0 12 -4 9 -10z m-1013 -22 c-7
-7 -12 -8 -12 -2 0 14 12 26 19 19 2 -3 -1 -11 -7 -17z m650 5 c-9 -4 -10 -9
-2 -18 7 -9 6 -16 -5 -25 -8 -7 -12 -17 -8 -24 3 -6 2 -7 -2 -3 -18 16 -16 59
2 72 10 7 20 11 23 8 3 -3 -1 -8 -8 -10z m418 13 c0 -2 -7 -7 -16 -10 -8 -3
-12 -2 -9 4 6 10 25 14 25 6z m-1160 -16 c-20 -13 -33 -13 -25 0 3 6 14 10 23
10 15 0 15 -2 2 -10z m140 -6 c0 -8 -4 -12 -10 -9 -5 3 -10 10 -10 16 0 5 5 9
10 9 6 0 10 -7 10 -16z m124 4 c-3 -4 -12 -8 -20 -8 -8 0 -13 4 -10 8 3 5 12
9 20 9 8 0 13 -4 10 -9z m-949 -8 c3 -6 -1 -7 -9 -4 -18 7 -21 14 -7 14 6 0
13 -4 16 -10z m125 -20 c0 -9 -37 -20 -44 -13 -3 3 -1 14 5 25 8 15 13 17 25
7 8 -6 14 -15 14 -19z m1470 20 c0 -5 -5 -10 -11 -10 -5 0 -7 5 -4 10 3 6 8
10 11 10 2 0 4 -4 4 -10z m135 -10 c3 -5 1 -10 -4 -10 -6 0 -11 5 -11 10 0 6
2 10 4 10 3 0 8 -4 11 -10z m-1295 -21 c0 -5 -4 -9 -10 -9 -5 0 -10 7 -10 16
0 8 5 12 10 9 6 -3 10 -10 10 -16z m270 9 c19 12 20 11 8 -8 -7 -11 -19 -18
-26 -15 -7 3 -10 0 -7 -5 3 -6 1 -10 -4 -10 -6 0 -11 12 -11 28 0 21 2 24 10
12 8 -12 13 -13 30 -2z m-166 -21 c3 -12 3 -23 1 -26 -3 -2 -5 1 -5 8 0 7 -5
9 -12 5 -7 -4 -8 -3 -4 4 5 8 0 12 -13 12 -32 0 -33 17 -2 18 22 0 30 -5 35
-21z m31 13 c3 -6 -1 -7 -9 -4 -18 7 -21 14 -7 14 6 0 13 -4 16 -10z m-259
-15 c-3 -9 0 -15 9 -15 9 0 12 6 9 15 -4 8 -2 15 4 15 15 0 23 -28 9 -34 -9
-3 -8 -8 3 -15 10 -7 11 -11 3 -11 -7 0 -13 -4 -13 -9 0 -5 14 -9 30 -9 31 1
48 -7 37 -18 -4 -4 -13 -1 -21 5 -10 8 -16 9 -21 1 -3 -6 -11 -8 -16 -5 -5 4
-10 -1 -10 -9 -1 -9 -2 -21 -3 -28 0 -6 -8 -13 -16 -15 -13 -4 -13 -3 0 6 13
9 9 14 -10 13 -3 0 -11 11 -17 25 -10 21 -10 24 3 19 10 -4 14 -1 11 6 -2 7 3
19 12 26 14 12 14 13 -1 8 -14 -4 -17 0 -16 19 1 14 6 25 11 25 5 0 7 -7 3
-15z m90 -2 c-3 -20 -22 -28 -31 -14 -8 14 3 31 20 31 7 0 12 -8 11 -17z m452
8 c10 -6 9 -10 -7 -14 -14 -3 -21 0 -21 9 0 16 9 18 28 5z m399 -13 c-3 -8 -6
-5 -6 6 -1 11 2 17 5 13 3 -3 4 -12 1 -19z m-1191 0 c4 -6 3 -8 -3 -5 -6 4
-21 -2 -33 -13 -29 -25 -33 -25 -18 0 7 11 19 21 28 24 8 2 16 4 17 5 1 0 5
-4 9 -11z m54 2 c0 -5 5 -10 11 -10 5 0 7 5 3 12 -4 6 -3 8 4 5 5 -4 9 -18 8
-32 -2 -13 1 -22 5 -19 5 3 9 0 9 -5 0 -6 6 -11 14 -11 8 0 18 -4 21 -10 4 -6
-2 -7 -17 -1 -14 5 -31 5 -40 0 -13 -7 -22 -2 -37 20 -24 33 -26 47 -8 54 20
9 27 8 27 -3z m783 -4 c3 -8 0 -20 -8 -26 -10 -8 -13 -5 -11 15 1 28 11 33 19
11z m317 4 c0 -5 -4 -10 -10 -10 -5 0 -10 5 -10 10 0 6 5 10 10 10 6 0 10 -4
10 -10z m-629 -30 c5 0 9 -5 9 -11 0 -8 -4 -8 -14 0 -9 7 -17 8 -20 2 -3 -5 0
-12 6 -14 8 -3 5 -6 -5 -6 -12 -1 -16 4 -13 12 3 6 9 21 13 32 6 18 8 18 11 3
2 -10 8 -18 13 -18z m44 5 c-1 -14 2 -25 8 -25 6 0 7 -3 3 -7 -9 -9 -36 25
-36 44 0 7 6 13 14 13 9 0 13 -9 11 -25z m651 10 c-3 -9 0 -15 10 -15 12 0 13
-4 4 -20 -6 -11 -16 -18 -22 -14 -7 4 -6 9 2 14 9 6 9 9 1 11 -11 4 -5 39 6
39 3 0 3 -7 -1 -15z m225 -12 c-8 -15 -10 -15 -11 -2 0 17 10 32 18 25 2 -3
-1 -13 -7 -23z m-654 10 c-4 -3 -2 -12 5 -20 16 -19 3 -27 -15 -8 -18 18 -31
20 -21 3 4 -7 3 -8 -4 -4 -19 11 -14 24 11 29 12 2 24 5 26 6 2 0 1 -2 -2 -6z
m95 -18 c-2 -14 -6 -25 -8 -25 -2 0 -4 11 -4 25 0 14 4 25 9 25 4 0 6 -11 3
-25z m632 10 c3 -8 1 -15 -4 -15 -6 0 -10 7 -10 15 0 8 2 15 4 15 2 0 6 -7 10
-15z m-1112 -30 c-2 -15 -8 -23 -13 -18 -10 10 0 55 11 48 4 -2 5 -16 2 -30z
m57 21 c7 -8 8 -17 3 -19 -4 -3 -13 3 -20 14 -14 22 0 26 17 5z m251 -21 c0
-5 -5 -3 -10 5 -5 8 -10 20 -10 25 0 6 5 3 10 -5 5 -8 10 -19 10 -25z m388 10
c-3 -3 -9 2 -12 12 -6 14 -5 15 5 6 7 -7 10 -15 7 -18z m40 16 c19 -11 5 -62
-15 -54 -10 4 -11 9 -4 16 7 7 7 16 0 29 -10 19 -3 23 19 9z m218 -23 c6 4 14
14 17 22 4 11 6 9 6 -5 1 -12 -9 -25 -23 -31 -21 -10 -25 -9 -30 9 -3 11 -2
25 2 31 3 6 9 1 12 -11 3 -13 9 -19 16 -15z m-1786 0 c0 -5 -9 -4 -20 2 -11 6
-20 12 -20 14 0 2 9 2 20 -1 11 -3 20 -9 20 -15z m1055 -24 c0 -19 -3 -34 -7
-34 -4 0 -5 -8 -1 -17 5 -17 5 -17 -11 -2 -17 15 -17 19 -1 48 8 17 13 37 9
44 -4 7 -3 8 2 4 5 -5 9 -24 9 -43z m555 36 c0 -5 -2 -10 -4 -10 -3 0 -8 5
-11 10 -3 6 -1 10 4 10 6 0 11 -4 11 -10z m92 2 c-8 -5 -10 -16 -6 -27 5 -13
4 -16 -4 -11 -19 11 -14 46 6 46 12 0 14 -2 4 -8z m151 -42 c-6 -7 -23 23 -23
40 0 8 6 4 13 -10 8 -14 12 -27 10 -30z m-988 31 c3 -5 1 -12 -5 -16 -5 -3
-10 1 -10 9 0 18 6 21 15 7z m1475 5 c0 -3 -4 -8 -10 -11 -5 -3 -10 -1 -10 4
0 6 5 11 10 11 6 0 10 -2 10 -4z m-1243 -12 c-3 -3 -12 -4 -19 -1 -8 3 -5 6 6
6 11 1 17 -2 13 -5z m163 -20 c0 -8 -4 -14 -8 -14 -4 0 -8 9 -8 19 0 11 4 17
8 15 4 -3 8 -12 8 -20z m-286 8 c3 -5 -1 -9 -9 -9 -8 0 -12 4 -9 9 3 4 7 8 9
8 2 0 6 -4 9 -8z m-97 -21 c1 -14 -3 -18 -13 -14 -11 4 -12 9 -3 19 15 18 14
18 16 -5z m63 15 c0 -3 -4 -8 -10 -11 -5 -3 -10 -1 -10 4 0 6 5 11 10 11 6 0
10 -2 10 -4z m-310 -16 c0 -5 -5 -10 -11 -10 -5 0 -7 5 -4 10 3 6 8 10 11 10
2 0 4 -4 4 -10z m688 -15 c-3 -3 -9 2 -12 12 -6 14 -5 15 5 6 7 -7 10 -15 7
-18z m282 21 c0 -3 -4 -8 -10 -11 -5 -3 -10 -1 -10 4 0 6 5 11 10 11 6 0 10
-2 10 -4z m-1147 -13 c-7 -2 -19 -2 -25 0 -7 3 -2 5 12 5 14 0 19 -2 13 -5z
m363 -6 c3 -3 -6 -4 -20 -3 -15 2 -29 6 -32 9 -4 3 6 5 20 3 14 -1 29 -5 32
-9z m423 -47 c-1 -11 -3 -10 -6 3 -2 9 -8 17 -13 17 -4 0 -10 10 -13 23 -6 21
-6 21 13 -3 11 -14 19 -32 19 -40z m161 50 c0 -5 -2 -10 -4 -10 -3 0 -8 5 -11
10 -3 6 -1 10 4 10 6 0 11 -4 11 -10z m-677 -15 c-3 -9 -8 -14 -10 -11 -3 3
-2 9 2 15 9 16 15 13 8 -4z m272 5 c3 -6 -1 -7 -9 -4 -18 7 -21 14 -7 14 6 0
13 -4 16 -10z m269 -11 c-6 -11 -24 -2 -24 11 0 5 7 7 15 4 8 -4 12 -10 9 -15z
m182 4 c-2 -9 -8 -19 -15 -21 -10 -3 -10 0 -2 17 14 25 20 27 17 4z m-989 -15
c-6 -9 -12 -16 -12 -15 0 1 -7 10 -14 19 -12 16 -11 18 12 16 21 -2 23 -5 14
-20z m163 6 c0 -14 -3 -14 -15 -4 -8 7 -15 14 -15 16 0 2 7 4 15 4 8 0 15 -7
15 -16z m38 -20 c2 -21 0 -25 -7 -14 -5 8 -7 18 -4 23 3 5 -1 14 -8 19 -12 8
-11 9 1 5 8 -2 16 -17 18 -33z m702 16 c0 -21 -8 -24 -34 -14 -15 6 -15 8 1
20 25 19 33 17 33 -6z m280 1 c0 -4 -14 -5 -31 -3 -19 3 -26 7 -19 12 14 8 50
2 50 -9z m-886 1 c3 -5 -1 -9 -9 -9 -8 0 -12 4 -9 9 3 4 7 8 9 8 2 0 6 -4 9
-8z m32 -60 c-11 -10 -14 3 -7 38 l6 35 3 -33 c2 -19 1 -36 -2 -40z m621 46
c-3 -8 -6 -5 -6 6 -1 11 2 17 5 13 3 -3 4 -12 1 -19z m-842 2 c3 -5 -1 -10 -9
-10 -9 0 -16 5 -16 10 0 6 4 10 9 10 6 0 13 -4 16 -10z m919 -6 c3 -8 2 -12
-4 -9 -6 3 -10 10 -10 16 0 14 7 11 14 -7z m-669 -4 c3 -5 1 -10 -4 -10 -6 0
-11 5 -11 10 0 6 2 10 4 10 3 0 8 -4 11 -10z m322 -12 c-3 -8 -6 -5 -6 6 -1
11 2 17 5 13 3 -3 4 -12 1 -19z m30 0 c-3 -8 -6 -5 -6 6 -1 11 2 17 5 13 3 -3
4 -12 1 -19z m-132 -17 c-6 -5 -25 10 -25 20 0 5 6 4 14 -3 8 -7 12 -15 11
-17z m185 -3 c0 -23 -3 -29 -9 -19 -8 12 -4 51 5 51 2 0 4 -15 4 -32z m50 28
c0 -3 -4 -8 -10 -11 -5 -3 -10 -1 -10 4 0 6 5 11 10 11 6 0 10 -2 10 -4z m186
-8 c5 -7 3 -8 -6 -3 -10 6 -12 4 -7 -8 3 -10 2 -17 -3 -17 -11 0 -13 23 -3 33
9 9 11 9 19 -5z m-976 -8 c0 -5 -5 -10 -11 -10 -5 0 -7 5 -4 10 3 6 8 10 11
10 2 0 4 -4 4 -10z m256 1 c-4 -5 0 -12 6 -14 7 -3 2 -6 -11 -6 -20 -1 -21 1
-11 14 14 16 25 21 16 6z m194 -3 c0 -4 -7 -8 -15 -8 -8 0 -15 4 -15 8 0 5 7
9 15 9 8 0 15 -4 15 -9z m410 8 c0 -3 -4 -8 -10 -11 -5 -3 -10 -1 -10 4 0 6 5
11 10 11 6 0 10 -2 10 -4z m50 -6 c0 -5 -4 -10 -10 -10 -5 0 -10 5 -10 10 0 6
5 10 10 10 6 0 10 -4 10 -10z m-934 -27 c-7 -7 -26 7 -26 19 0 6 6 6 15 -2 9
-7 13 -15 11 -17z m1198 15 c-3 -4 -9 -8 -15 -8 -5 0 -9 4 -9 8 0 5 7 9 15 9
8 0 12 -4 9 -9z m-154 -13 c0 -19 -6 -19 -14 0 -3 8 -1 15 4 15 6 0 10 -7 10
-15z m-543 -17 c-3 -8 -6 -5 -6 6 -1 11 2 17 5 13 3 -3 4 -12 1 -19z m-44 -5
c-3 -10 -3 -15 2 -11 4 4 14 1 21 -7 18 -18 18 -20 -6 -22 -20 -2 -36 29 -25
47 10 16 15 12 8 -7z m435 -4 c3 -11 1 -11 -7 1 -8 11 -11 12 -11 2 0 -7 -4
-10 -10 -7 -16 10 -12 23 7 21 9 -2 19 -9 21 -17z m112 6 c0 -2 -9 -3 -19 -2
-11 0 -18 5 -15 9 4 6 34 0 34 -7z m-800 -11 c0 -8 -4 -12 -10 -9 -5 3 -10 10
-10 16 0 5 5 9 10 9 6 0 10 -7 10 -16z m220 1 c0 -18 -26 -20 -36 -3 -5 8 -2
9 9 5 10 -3 17 -2 17 3 0 6 2 10 5 10 3 0 5 -7 5 -15z m530 5 c0 -5 -2 -10 -4
-10 -3 0 -8 5 -11 10 -3 6 -1 10 4 10 6 0 11 -4 11 -10z m-595 -26 c-19 -19
-24 -18 -18 5 3 12 11 17 19 14 11 -4 11 -7 -1 -19z m825 12 c0 -3 -4 -8 -10
-11 -5 -3 -10 -1 -10 4 0 6 5 11 10 11 6 0 10 -2 10 -4z"/>
<path d="M1390 1533 c-45 -23 -43 -31 4 -14 13 6 26 7 29 3 2 -4 2 -2 1 5 -2
6 2 14 9 16 7 2 10 6 7 8 -3 3 -25 -6 -50 -18z"/>
<path d="M1388 1433 c7 -3 16 -2 19 1 4 3 -2 6 -13 5 -11 0 -14 -3 -6 -6z"/>
<path d="M3230 926 c0 -2 7 -9 15 -16 13 -11 14 -10 9 4 -5 14 -24 23 -24 12z"/>
<path d="M3268 883 c7 -3 16 -2 19 1 4 3 -2 6 -13 5 -11 0 -14 -3 -6 -6z"/>
<path d="M3240 860 c0 -5 5 -10 10 -10 6 0 10 5 10 10 0 6 -4 10 -10 10 -5 0
-10 -4 -10 -10z"/>
<path d="M3545 849 c-4 -6 -5 -12 -2 -15 2 -3 7 2 10 11 7 17 1 20 -8 4z"/>
<path d="M3055 781 c-3 -5 2 -11 10 -15 8 -3 17 -1 20 3 3 5 -2 11 -10 15 -8
3 -17 1 -20 -3z"/>
<path d="M2935 740 c4 -6 11 -8 16 -5 14 9 11 15 -7 15 -8 0 -12 -5 -9 -10z"/>
<path d="M3084 705 c3 -21 16 -31 16 -12 0 9 -4 18 -9 21 -5 4 -8 -1 -7 -9z"/>
<path d="M3420 866 c0 -2 7 -6 15 -10 8 -3 15 -1 15 4 0 6 -7 10 -15 10 -8 0
-15 -2 -15 -4z"/>
<path d="M3340 841 c0 -5 5 -13 10 -16 6 -3 10 -2 10 4 0 5 -4 13 -10 16 -5 3
-10 2 -10 -4z"/>
<path d="M2469 732 c9 -7 10 -11 2 -15 -7 -4 -8 -5 0 -3 15 2 13 20 -3 24 -10
3 -10 2 1 -6z"/>
<path d="M1916 721 c-3 -4 7 -8 21 -9 15 -1 23 1 19 5 -9 10 -35 13 -40 4z"/>
<path d="M1970 685 c0 -8 2 -15 4 -15 2 0 6 7 10 15 3 8 1 15 -4 15 -6 0 -10
-7 -10 -15z"/>
<path d="M1286 648 c3 -4 9 -8 15 -8 5 0 9 4 9 8 0 5 -7 9 -15 9 -8 0 -12 -4
-9 -9z"/>
<path d="M1645 650 c-3 -6 1 -7 9 -4 18 7 21 14 7 14 -6 0 -13 -4 -16 -10z"/>
<path d="M1227 628 c-4 -12 -4 -24 -2 -27 3 -2 5 1 5 8 0 7 4 10 9 6 6 -3 9 4
8 15 -2 27 -13 26 -20 -2z"/>
<path d="M1265 625 c0 -19 3 -21 14 -12 8 7 16 11 18 10 8 -7 33 -2 33 6 0 5
-9 7 -20 4 -11 -3 -26 -1 -33 5 -9 8 -12 4 -12 -13z"/>
<path d="M1489 564 c-12 -14 -11 -16 5 -13 11 2 21 10 24 17 5 17 -13 15 -29
-4z"/>
<path d="M1375 470 c3 -5 10 -10 16 -10 5 0 9 5 9 10 0 6 -7 10 -16 10 -8 0
-12 -4 -9 -10z"/>
<path d="M2063 581 c1 -12 7 -21 14 -21 17 0 16 15 -1 30 -12 9 -15 8 -13 -9z"/>
<path d="M2026 559 c2 -4 0 -10 -6 -14 -13 -8 -13 -25 1 -25 5 0 8 4 5 9 -3 5
1 11 9 15 19 7 19 23 0 23 -8 0 -12 -4 -9 -8z"/>
<path d="M1800 619 c0 -5 5 -7 10 -4 6 3 10 8 10 11 0 2 -4 4 -10 4 -5 0 -10
-5 -10 -11z"/>
<path d="M1850 524 c0 -9 -5 -12 -12 -8 -19 12 -57 14 -64 3 -3 -5 -10 -7 -15
-4 -5 4 -9 2 -9 -3 0 -5 25 -10 55 -11 49 -1 55 1 55 19 0 11 -2 20 -5 20 -3
0 -5 -7 -5 -16z"/>
<path d="M1845 480 c3 -5 8 -10 11 -10 2 0 4 5 4 10 0 6 -5 10 -11 10 -5 0 -7
-4 -4 -10z"/>
<path d="M1874 465 c-1 -14 2 -25 8 -25 5 0 6 5 3 10 -3 6 1 10 9 10 10 0 13
6 10 15 -10 24 -29 17 -30 -10z"/>
<path d="M2360 490 c0 -15 21 -23 32 -12 6 6 2 11 -11 15 -12 3 -21 1 -21 -3z"/>
<path d="M2525 630 c-3 -5 -1 -10 4 -10 6 0 11 5 11 10 0 6 -2 10 -4 10 -3 0
-8 -4 -11 -10z"/>
<path d="M1585 450 c-4 -6 -2 -10 4 -10 6 0 8 -12 5 -28 -5 -23 -2 -28 15 -29
12 -1 21 3 21 8 0 6 -4 8 -9 5 -13 -9 -20 16 -10 36 9 18 -16 35 -26 18z"/>
<path d="M1570 355 c-14 -17 -10 -47 6 -37 15 9 28 52 16 52 -5 0 -15 -7 -22
-15z"/>
<path d="M2216 285 c4 -8 11 -15 16 -15 6 0 5 6 -2 15 -7 8 -14 15 -16 15 -2
0 -1 -7 2 -15z"/>
<path d="M1780 331 c0 -11 29 -35 35 -29 2 2 -4 12 -15 21 -11 9 -20 13 -20 8z"/>
<path d="M1310 262 c0 -6 4 -13 10 -17 5 -3 7 -12 3 -20 -3 -8 -1 -15 4 -15
15 0 13 38 -3 51 -9 7 -14 8 -14 1z"/>
<path d="M2470 2476 c0 -2 8 -10 18 -17 15 -13 16 -12 3 4 -13 16 -21 21 -21
13z"/>
<path d="M2680 2451 c-7 -13 -7 -22 0 -26 5 -3 10 1 10 10 0 9 5 13 10 10 6
-3 10 -2 10 4 0 20 -19 21 -30 2z"/>
<path d="M2407 2349 c7 -7 15 -10 18 -7 3 3 -2 9 -12 12 -14 6 -15 5 -6 -5z"/>
<path d="M2140 2306 c0 -2 8 -10 18 -17 15 -13 16 -12 3 4 -13 16 -21 21 -21
13z"/>
<path d="M2250 2290 c8 -5 20 -10 25 -10 6 0 3 5 -5 10 -8 5 -19 10 -25 10 -5
0 -3 -5 5 -10z"/>
<path d="M2140 2255 c7 -8 16 -15 21 -15 5 0 6 7 3 15 -4 8 -13 15 -21 15 -13
0 -13 -3 -3 -15z"/>
<path d="M1859 2226 c6 -7 8 -16 4 -19 -3 -4 -1 -7 5 -7 7 0 12 5 12 10 0 6
11 10 25 10 42 0 28 15 -16 17 -33 2 -39 0 -30 -11z"/>
<path d="M2090 2214 c0 -2 9 -8 20 -14 11 -6 20 -7 20 -2 0 6 -9 12 -20 15
-11 3 -20 3 -20 1z"/>
<path d="M1508 2068 c11 -11 52 -22 52 -14 0 2 -15 9 -32 15 -26 9 -30 9 -20
-1z"/>
<path d="M3441 2041 c-7 -5 -9 -11 -4 -14 5 -3 15 -2 22 2 7 5 9 11 4 14 -5 3
-15 2 -22 -2z"/>
<path d="M1448 2028 c6 -6 25 -12 43 -14 22 -3 30 -1 23 6 -5 5 -25 12 -43 14
-22 2 -29 0 -23 -6z"/>
<path d="M1420 2010 c0 -5 -8 -10 -17 -10 -17 -1 -17 -1 -1 -10 9 -6 26 -7 37
-2 21 7 21 7 1 20 -12 7 -20 8 -20 2z"/>
<path d="M1397 1968 c2 -5 -4 -8 -14 -9 -12 -1 -10 -3 7 -8 30 -9 52 -3 43 12
-4 7 0 8 13 3 10 -4 15 -3 10 1 -10 10 -66 11 -59 1z"/>
<path d="M1368 1913 c6 -2 18 -2 25 0 6 3 1 5 -13 5 -14 0 -19 -2 -12 -5z"/>
<path d="M1296 1811 c-3 -5 1 -11 9 -14 9 -4 12 -1 8 9 -6 16 -10 17 -17 5z"/>
<path d="M1270 1768 c-21 -20 -21 -22 -6 -34 15 -11 14 -13 -15 -19 -22 -5
-28 -10 -19 -15 8 -5 35 0 64 12 56 22 74 34 38 25 -23 -6 -24 -5 -5 15 18 21
18 21 -4 9 -30 -16 -53 -13 -24 3 18 10 20 14 8 19 -8 3 -25 -4 -37 -15z"/>
<path d="M1 1648 c-1 -71 1 -78 18 -78 11 0 23 -5 27 -12 5 -7 3 -8 -6 -3 -9
5 -11 4 -6 -4 4 -6 11 -9 16 -6 5 3 11 1 15 -5 15 -24 24 -6 19 38 -4 26 -7
54 -8 62 -1 8 -7 24 -14 35 -11 19 -11 19 -12 -5 -1 -24 -1 -24 -15 -6 -8 11
-16 16 -16 10 -1 -5 -5 5 -9 21 -6 22 -8 9 -9 -47z"/>
<path d="M1273 1693 c-7 -3 -13 -11 -13 -19 0 -8 -6 -14 -12 -15 -7 0 0 -5 17
-10 19 -5 33 -5 40 2 7 7 4 8 -10 3 -19 -7 -19 -7 -2 13 9 11 17 22 17 25 0 6
-20 6 -37 1z"/>
<path d="M1195 1645 l-30 -13 31 1 c17 1 31 8 31 15 0 6 -1 12 -1 12 -1 -1
-14 -7 -31 -15z"/>
<path d="M1363 1622 c-36 -31 -40 -39 -28 -50 11 -10 21 -9 50 5 19 9 35 24
35 32 0 13 -2 13 -9 2 -11 -17 -32 -5 -25 14 4 8 9 13 13 10 4 -2 8 2 8 10 0
8 -1 15 -1 15 -1 0 -20 -17 -43 -38z m16 -33 c-22 -13 -31 -11 -17 5 7 8 17
12 22 9 4 -3 2 -9 -5 -14z"/>
<path d="M1220 1618 c-34 -11 -34 -11 -10 -18 16 -4 31 -2 41 7 9 7 19 10 24
6 4 -5 5 -2 1 5 -8 14 -9 14 -56 0z"/>
<path d="M1165 1441 c-8 -14 10 -22 30 -15 13 5 14 8 3 15 -17 11 -26 11 -33
0z"/>
<path d="M1205 1400 c-3 -5 -1 -10 4 -10 6 0 11 5 11 10 0 6 -2 10 -4 10 -3 0
-8 -4 -11 -10z"/>
<path d="M223 1316 c0 -8 8 -11 20 -8 14 4 16 7 5 13 -19 12 -25 11 -25 -5z"/>
<path d="M783 1295 c0 -8 7 -15 15 -15 12 0 12 3 2 15 -7 8 -13 15 -15 15 -1
0 -2 -7 -2 -15z"/>
<path d="M830 1300 c35 -24 54 -31 30 -11 -14 11 -29 21 -35 21 -5 0 -3 -5 5
-10z"/>
<path d="M297 1253 c-4 -3 -7 -11 -7 -17 0 -6 5 -5 12 2 6 6 9 14 7 17 -3 3
-9 2 -12 -2z"/>
<path d="M293 1197 c-9 -19 -8 -24 3 -24 7 0 11 4 8 8 -2 4 2 9 8 12 9 3 10 8
2 16 -8 9 -13 5 -21 -12z"/>
<path d="M350 1180 c0 -5 7 -10 16 -10 8 0 12 5 9 10 -3 6 -10 10 -16 10 -5 0
-9 -4 -9 -10z"/>
<path d="M3678 1177 c-15 -12 -15 -14 3 -25 11 -7 19 -8 19 -2 0 5 -6 10 -12
10 -9 0 -8 3 2 9 8 6 18 7 24 4 5 -3 6 -1 2 5 -9 15 -17 15 -38 -1z"/>
<path d="M3635 1161 c3 -5 0 -13 -6 -16 -5 -4 -8 -13 -5 -20 3 -8 0 -16 -7
-19 -7 -2 -5 -5 4 -5 9 -1 22 6 29 14 11 13 10 14 -5 9 -15 -6 -16 -4 -6 14
14 26 14 32 0 32 -5 0 -8 -4 -4 -9z"/>
<path d="M290 1141 c0 -6 4 -12 8 -15 5 -3 9 1 9 9 0 8 -4 15 -9 15 -4 0 -8
-4 -8 -9z"/>
<path d="M332 1141 c-11 -6 -10 -10 4 -15 9 -3 19 -4 22 -1 3 3 0 5 -7 5 -7 0
-9 5 -6 10 7 12 4 12 -13 1z"/>
<path d="M3725 1123 c2 -10 4 -21 4 -25 2 -20 19 -5 19 17 0 14 -6 25 -13 25
-7 0 -12 -8 -10 -17z"/>
<path d="M3570 1117 c0 -10 8 -17 18 -17 9 0 13 4 7 8 -5 4 -13 11 -17 16 -5
5 -8 2 -8 -7z"/>
<path d="M3671 1113 c-12 -13 -11 -14 9 -8 15 5 20 3 16 -3 -3 -6 -2 -13 3
-16 18 -11 21 11 3 27 -15 14 -18 14 -31 0z"/>
<path d="M380 1085 c-10 -12 -10 -15 1 -15 8 0 5 -6 -7 -15 -10 -8 -14 -15 -7
-15 6 0 18 6 25 13 7 7 25 12 41 12 33 -1 34 3 5 14 -15 6 -28 5 -37 -3 -12
-9 -13 -8 -8 7 8 21 3 22 -13 2z"/>
<path d="M3508 1093 c7 -3 16 -2 19 1 4 3 -2 6 -13 5 -11 0 -14 -3 -6 -6z"/>
<path d="M325 1070 c-3 -5 -1 -10 4 -10 6 0 11 5 11 10 0 6 -2 10 -4 10 -3 0
-8 -4 -11 -10z"/>
<path d="M3710 1059 c0 -5 5 -7 10 -4 6 3 10 8 10 11 0 2 -4 4 -10 4 -5 0 -10
-5 -10 -11z"/>
<path d="M229 1033 c-13 -17 -13 -17 6 -3 11 8 22 16 24 17 2 2 0 3 -6 3 -6 0
-17 -8 -24 -17z"/>
<path d="M382 1020 c-7 -11 -8 -20 -3 -20 9 0 24 30 18 36 -1 2 -8 -6 -15 -16z"/>
<path d="M410 1029 c0 -5 5 -7 10 -4 6 3 10 8 10 11 0 2 -4 4 -10 4 -5 0 -10
-5 -10 -11z"/>
<path d="M3456 1017 c3 -10 9 -15 12 -12 3 3 0 11 -7 18 -10 9 -11 8 -5 -6z"/>
<path d="M3703 1024 c3 -4 2 -15 -4 -25 -7 -15 -6 -21 6 -25 22 -9 48 3 39 18
-6 9 -9 9 -12 0 -7 -23 -21 -12 -16 13 3 15 0 25 -7 25 -7 0 -9 -3 -6 -6z"/>
<path d="M3665 1010 c3 -5 8 -10 11 -10 2 0 4 5 4 10 0 6 -5 10 -11 10 -5 0
-7 -4 -4 -10z"/>
<path d="M3392 950 c0 -14 2 -19 5 -12 2 6 2 18 0 25 -3 6 -5 1 -5 -13z"/>
<path d="M307 945 c-4 -8 -2 -17 3 -20 6 -4 10 3 10 14 0 25 -6 27 -13 6z"/>
<path d="M427 943 c3 -7 6 -13 8 -13 2 0 5 6 8 13 3 8 -1 14 -8 14 -7 0 -11
-6 -8 -14z"/>
<path d="M3365 940 c3 -5 8 -10 11 -10 2 0 4 5 4 10 0 6 -5 10 -11 10 -5 0 -7
-4 -4 -10z"/>
<path d="M3735 940 c3 -5 8 -10 11 -10 2 0 4 5 4 10 0 6 -5 10 -11 10 -5 0 -7
-4 -4 -10z"/>
<path d="M3702 923 c-6 -2 -10 -9 -6 -14 3 -5 -3 -9 -13 -10 -14 0 -15 -2 -3
-6 8 -3 18 -10 21 -16 4 -5 16 -6 28 -2 19 6 20 9 9 23 -10 12 -10 14 0 8 6
-4 12 -3 12 2 0 8 -26 24 -33 21 -1 0 -8 -3 -15 -6z"/>
<path d="M306 785 c4 -8 8 -15 10 -15 2 0 4 7 4 15 0 8 -4 15 -10 15 -5 0 -7
-7 -4 -15z"/>
<path d="M252 490 c0 -14 2 -19 5 -12 2 6 2 18 0 25 -3 6 -5 1 -5 -13z"/>
<path d="M270 500 c0 -5 5 -10 10 -10 6 0 10 5 10 10 0 6 -4 10 -10 10 -5 0
-10 -4 -10 -10z"/>
<path d="M770 422 c6 -13 14 -21 18 -18 3 4 -2 14 -12 24 -18 16 -18 16 -6 -6z"/>
<path d="M1020 411 c0 -6 11 -23 25 -38 l26 -28 -22 38 c-21 37 -29 45 -29 28z"/>
<path d="M774 370 c3 -14 6 -31 6 -39 0 -11 4 -10 16 5 8 10 12 12 8 4 -6 -12
-4 -13 7 -2 10 9 10 15 1 24 -7 7 -12 8 -12 3 0 -5 -7 0 -16 11 -15 18 -15 18
-10 -6z"/>
<path d="M430 360 c0 -5 5 -10 11 -10 5 0 7 5 4 10 -3 6 -8 10 -11 10 -2 0 -4
-4 -4 -10z"/>
<path d="M421 324 c0 -11 3 -14 6 -6 3 7 2 16 -1 19 -3 4 -6 -2 -5 -13z"/>
<path d="M452 320 c0 -14 2 -19 5 -12 2 6 2 18 0 25 -3 6 -5 1 -5 -13z"/>
<path d="M930 289 c0 -8 7 -24 15 -35 11 -15 14 -16 15 -3 0 8 -7 24 -15 35
-11 15 -14 16 -15 3z"/>
</g>
</svg>
